<svg width="20" height="20" viewBox="0 0 20 20" fill="none" xmlns="http://www.w3.org/2000/svg">
<path d="M17.1875 0.125H2.0625C0.902344 0.125 0 1.07031 0 2.1875V17.3125C0 18.4727 0.902344 19.375 2.0625 19.375H7.94922V12.8438H5.24219V9.75H7.94922V7.42969C7.94922 4.76562 9.53906 3.26172 11.9453 3.26172C13.1484 3.26172 14.3516 3.47656 14.3516 3.47656V6.09766H13.0195C11.6875 6.09766 11.2578 6.91406 11.2578 7.77344V9.75H14.2227L13.75 12.8438H11.2578V19.375H17.1875C18.3047 19.375 19.25 18.4727 19.25 17.3125V2.1875C19.25 1.07031 18.3047 0.125 17.1875 0.125Z" fill="white"/>
<path d="M7.94922 19.375V19.875H8.44922V19.375H7.94922ZM7.94922 12.8438H8.44922V12.3438H7.94922V12.8438ZM5.24219 12.8438H4.74219V13.3438H5.24219V12.8438ZM5.24219 9.75V9.25H4.74219V9.75H5.24219ZM7.94922 9.75V10.25H8.44922V9.75H7.94922ZM14.3516 3.47656H14.8516V3.05794L14.4395 2.98435L14.3516 3.47656ZM14.3516 6.09766V6.59766H14.8516V6.09766H14.3516ZM11.2578 9.75H10.7578V10.25H11.2578V9.75ZM14.2227 9.75L14.7169 9.82551L14.8048 9.25H14.2227V9.75ZM13.75 12.8438V13.3438H14.1794L14.2443 12.9193L13.75 12.8438ZM11.2578 12.8438V12.3438H10.7578V12.8438H11.2578ZM11.2578 19.375H10.7578V19.875H11.2578V19.375ZM17.1875 -0.375H2.0625V0.625H17.1875V-0.375ZM2.0625 -0.375C0.619443 -0.375 -0.5 0.800977 -0.5 2.1875H0.5C0.5 1.33965 1.18524 0.625 2.0625 0.625V-0.375ZM-0.5 2.1875V17.3125H0.5V2.1875H-0.5ZM-0.5 17.3125C-0.5 18.7488 0.626201 19.875 2.0625 19.875V18.875C1.17849 18.875 0.5 18.1965 0.5 17.3125H-0.5ZM2.0625 19.875H7.94922V18.875H2.0625V19.875ZM8.44922 19.375V12.8438H7.44922V19.375H8.44922ZM7.94922 12.3438H5.24219V13.3438H7.94922V12.3438ZM5.74219 12.8438V9.75H4.74219V12.8438H5.74219ZM5.24219 10.25H7.94922V9.25H5.24219V10.25ZM8.44922 9.75V7.42969H7.44922V9.75H8.44922ZM8.44922 7.42969C8.44922 6.19748 8.81499 5.29272 9.40116 4.69752C9.98701 4.10266 10.8474 3.76172 11.9453 3.76172V2.76172C10.637 2.76172 9.49931 3.17273 8.68868 3.99584C7.87837 4.81861 7.44922 5.99783 7.44922 7.42969H8.44922ZM11.9453 3.76172C12.5199 3.76172 13.1001 3.81321 13.5405 3.86563C13.7597 3.89173 13.9421 3.9178 14.0691 3.93724C14.1326 3.94695 14.1821 3.95499 14.2153 3.96053C14.2319 3.9633 14.2445 3.96544 14.2526 3.96685C14.2567 3.96755 14.2597 3.96807 14.2615 3.9684C14.2625 3.96856 14.2631 3.96868 14.2635 3.96874C14.2636 3.96877 14.2637 3.96879 14.2638 3.9688C14.2638 3.9688 14.2638 3.9688 14.2638 3.9688C14.2638 3.96879 14.2637 3.96879 14.2637 3.96879C14.2637 3.96878 14.2637 3.96878 14.3516 3.47656C14.4395 2.98435 14.4394 2.98434 14.4394 2.98433C14.4393 2.98433 14.4393 2.98432 14.4392 2.98431C14.4391 2.98429 14.439 2.98427 14.4389 2.98425C14.4386 2.9842 14.4383 2.98415 14.4379 2.98407C14.4371 2.98393 14.436 2.98374 14.4346 2.98349C14.4318 2.98301 14.4279 2.98232 14.4229 2.98145C14.4128 2.97972 14.3984 2.97724 14.3797 2.97413C14.3424 2.96792 14.2886 2.95918 14.2204 2.94875C14.0842 2.9279 13.8907 2.90026 13.6587 2.87265C13.1967 2.81765 12.5739 2.76172 11.9453 2.76172V3.76172ZM13.8516 3.47656V6.09766H14.8516V3.47656H13.8516ZM14.3516 5.59766H13.0195V6.59766H14.3516V5.59766ZM13.0195 5.59766C12.247 5.59766 11.6546 5.8385 11.2637 6.28311C10.8833 6.71564 10.7578 7.26872 10.7578 7.77344H11.7578C11.7578 7.41878 11.8471 7.13397 12.0146 6.94345C12.1715 6.76501 12.46 6.59766 13.0195 6.59766V5.59766ZM10.7578 7.77344V9.75H11.7578V7.77344H10.7578ZM11.2578 10.25H14.2227V9.25H11.2578V10.25ZM13.7284 9.67449L13.2557 12.7682L14.2443 12.9193L14.7169 9.82551L13.7284 9.67449ZM13.75 12.3438H11.2578V13.3438H13.75V12.3438ZM10.7578 12.8438V19.375H11.7578V12.8438H10.7578ZM11.2578 19.875H17.1875V18.875H11.2578V19.875ZM17.1875 19.875C18.574 19.875 19.75 18.7556 19.75 17.3125H18.75C18.75 18.1898 18.0354 18.875 17.1875 18.875V19.875ZM19.75 17.3125V2.1875H18.75V17.3125H19.75ZM19.75 2.1875C19.75 0.79417 18.5808 -0.375 17.1875 -0.375V0.625C18.0285 0.625 18.75 1.34645 18.75 2.1875H19.75Z" fill="black"/>
</svg>
