<svg width="22" height="21" viewBox="0 0 22 21" fill="none" xmlns="http://www.w3.org/2000/svg">
<path d="M7.08984 16.8516C7.08984 16.9375 7.00391 16.9805 6.875 16.9805C6.74609 17.0234 6.66016 16.9375 6.66016 16.8516C6.66016 16.7656 6.74609 16.6797 6.875 16.6797C7.00391 16.6797 7.08984 16.7656 7.08984 16.8516ZM5.75781 16.6367C5.75781 16.7227 5.84375 16.8516 5.97266 16.8516C6.05859 16.8945 6.1875 16.8516 6.23047 16.7656C6.23047 16.6797 6.1875 16.5938 6.05859 16.5508C5.92969 16.5078 5.80078 16.5508 5.75781 16.6367ZM7.69141 16.5938C7.5625 16.5938 7.47656 16.6797 7.47656 16.8086C7.47656 16.8945 7.60547 16.9375 7.73438 16.8945C7.86328 16.8516 7.94922 16.8086 7.90625 16.7227C7.90625 16.6367 7.77734 16.5508 7.69141 16.5938ZM10.4844 0.09375C4.55469 0.09375 0 4.64844 0 10.5781C0 15.3477 2.96484 19.4297 7.26172 20.8906C7.82031 20.9766 7.99219 20.6328 7.99219 20.375C7.99219 20.0742 7.99219 18.6133 7.99219 17.7109C7.99219 17.7109 4.98438 18.3555 4.33984 16.4219C4.33984 16.4219 3.86719 15.1758 3.17969 14.875C3.17969 14.875 2.19141 14.1875 3.22266 14.1875C3.22266 14.1875 4.29688 14.2734 4.89844 15.3047C5.84375 16.9805 7.39062 16.5078 8.03516 16.207C8.12109 15.5195 8.37891 15.0469 8.72266 14.7461C6.31641 14.4883 3.86719 14.1445 3.86719 10.0195C3.86719 8.81641 4.21094 8.25781 4.89844 7.48438C4.76953 7.18359 4.42578 6.06641 5.02734 4.5625C5.88672 4.30469 7.99219 5.72266 7.99219 5.72266C8.85156 5.46484 9.75391 5.37891 10.6562 5.37891C11.6016 5.37891 12.5039 5.46484 13.3633 5.72266C13.3633 5.72266 15.4258 4.26172 16.3281 4.5625C16.9297 6.06641 16.543 7.18359 16.457 7.48438C17.1445 8.25781 17.5742 8.81641 17.5742 10.0195C17.5742 14.1445 15.0391 14.4883 12.6328 14.7461C13.0195 15.0898 13.3633 15.7344 13.3633 16.7656C13.3633 18.1836 13.3203 19.9883 13.3203 20.332C13.3203 20.6328 13.5352 20.9766 14.0938 20.8477C18.3906 19.4297 21.3125 15.3477 21.3125 10.5781C21.3125 4.64844 16.457 0.09375 10.4844 0.09375ZM4.16797 14.918C4.08203 14.9609 4.125 15.0898 4.16797 15.1758C4.25391 15.2188 4.33984 15.2617 4.42578 15.2188C4.46875 15.1758 4.46875 15.0469 4.38281 14.9609C4.29688 14.918 4.21094 14.875 4.16797 14.918ZM3.69531 14.5742C3.65234 14.6602 3.69531 14.7031 3.78125 14.7461C3.86719 14.7891 3.95312 14.7891 3.99609 14.7031C3.99609 14.6602 3.95312 14.6172 3.86719 14.5742C3.78125 14.5312 3.73828 14.5312 3.69531 14.5742ZM5.07031 16.1211C5.02734 16.1641 5.02734 16.293 5.15625 16.3789C5.24219 16.4648 5.37109 16.5078 5.41406 16.4219C5.45703 16.3789 5.45703 16.25 5.37109 16.1641C5.28516 16.0781 5.15625 16.0352 5.07031 16.1211ZM4.59766 15.4766C4.51172 15.5195 4.51172 15.6484 4.59766 15.7344C4.68359 15.8203 4.76953 15.8633 4.85547 15.8203C4.89844 15.7773 4.89844 15.6484 4.85547 15.5625C4.76953 15.4766 4.68359 15.4336 4.59766 15.4766Z" fill="white"/>
<path d="M6.875 16.9805V16.4805H6.79386L6.71689 16.5061L6.875 16.9805ZM5.75781 16.6367L5.3106 16.4131L5.25781 16.5187V16.6367H5.75781ZM5.97266 16.8516L6.19626 16.4043L6.09069 16.3516H5.97266V16.8516ZM6.23047 16.7656L6.67768 16.9892L6.73047 16.8837V16.7656H6.23047ZM7.69141 16.5938V17.0938H7.80944L7.91501 17.041L7.69141 16.5938ZM7.90625 16.7227H7.40625V16.8407L7.45904 16.9463L7.90625 16.7227ZM7.26172 20.8906L7.10077 21.364L7.14232 21.3781L7.18569 21.3848L7.26172 20.8906ZM7.99219 17.7109H8.49219V17.0924L7.88742 17.222L7.99219 17.7109ZM4.33984 16.4219L4.81419 16.2638L4.81096 16.2541L4.80734 16.2445L4.33984 16.4219ZM3.17969 14.875L2.89416 15.2855L2.93438 15.3134L2.97928 15.3331L3.17969 14.875ZM3.22266 14.1875L3.26253 13.6891L3.24262 13.6875H3.22266V14.1875ZM4.89844 15.3047L5.33397 15.059L5.33033 15.0528L4.89844 15.3047ZM8.03516 16.207L8.2466 16.6601L8.49702 16.5433L8.53129 16.269L8.03516 16.207ZM8.72266 14.7461L9.05191 15.1224L9.91113 14.3706L8.77592 14.2489L8.72266 14.7461ZM4.89844 7.48438L5.27214 7.81656L5.48308 7.57925L5.35801 7.28742L4.89844 7.48438ZM5.02734 4.5625L4.88367 4.08359L4.65267 4.15289L4.56311 4.3768L5.02734 4.5625ZM7.99219 5.72266L7.71289 6.13737L7.90918 6.26957L8.13586 6.20157L7.99219 5.72266ZM13.3633 5.72266L13.2196 6.20157L13.4532 6.27166L13.6523 6.13067L13.3633 5.72266ZM16.3281 4.5625L16.7924 4.3768L16.7062 4.16149L16.4862 4.08816L16.3281 4.5625ZM16.457 7.48438L15.9763 7.34701L15.9008 7.6112L16.0833 7.81656L16.457 7.48438ZM12.6328 14.7461L12.5795 14.2489L11.4563 14.3693L12.3006 15.1198L12.6328 14.7461ZM14.0938 20.8477L14.2062 21.3349L14.2286 21.3297L14.2504 21.3225L14.0938 20.8477ZM4.16797 14.918L4.39158 15.3652L4.46415 15.3289L4.52152 15.2715L4.16797 14.918ZM4.16797 15.1758L3.72076 15.3994L3.79529 15.5485L3.94436 15.623L4.16797 15.1758ZM4.42578 15.2188L4.64939 15.666L4.72196 15.6297L4.77933 15.5723L4.42578 15.2188ZM4.38281 14.9609L4.73637 14.6074L4.67899 14.55L4.60642 14.5137L4.38281 14.9609ZM3.69531 14.5742L3.34176 14.2207L3.28439 14.278L3.2481 14.3506L3.69531 14.5742ZM3.99609 14.7031L4.44331 14.9267L4.49609 14.8212V14.7031H3.99609ZM5.15625 16.3789L5.5098 16.0254L5.47479 15.9903L5.4336 15.9629L5.15625 16.3789ZM5.41406 16.4219L5.06051 16.0683L5.00314 16.1257L4.96685 16.1983L5.41406 16.4219ZM4.85547 15.8203L5.07908 16.2675L5.15165 16.2312L5.20902 16.1739L4.85547 15.8203ZM4.85547 15.5625L5.30268 15.3389L5.2664 15.2663L5.20902 15.2089L4.85547 15.5625ZM6.58984 16.8516C6.58984 16.7859 6.60745 16.7117 6.6504 16.643C6.69183 16.5767 6.74359 16.5365 6.78269 16.5141C6.85122 16.475 6.89616 16.4805 6.875 16.4805V17.4805C6.98274 17.4805 7.13511 17.4645 7.27883 17.3824C7.44967 17.2847 7.58984 17.0985 7.58984 16.8516H6.58984ZM6.71689 16.5061C6.78843 16.4823 6.90433 16.4821 7.00986 16.5575C7.10239 16.6236 7.16016 16.7315 7.16016 16.8516H6.16016C6.16016 17.0576 6.26089 17.2514 6.42862 17.3712C6.60934 17.5003 6.83266 17.5216 7.03311 17.4548L6.71689 16.5061ZM7.16016 16.8516C7.16016 17.1113 6.94715 17.1797 6.875 17.1797V16.1797C6.54504 16.1797 6.16016 16.4199 6.16016 16.8516H7.16016ZM6.875 17.1797C6.80285 17.1797 6.58984 17.1113 6.58984 16.8516H7.58984C7.58984 16.4199 7.20496 16.1797 6.875 16.1797V17.1797ZM5.25781 16.6367C5.25781 16.8248 5.34062 16.9914 5.44061 17.1056C5.54886 17.2293 5.73084 17.3516 5.97266 17.3516V16.3516C6.08557 16.3516 6.16012 16.4093 6.19318 16.4471C6.21037 16.4668 6.22425 16.4889 6.23479 16.5142C6.24447 16.5375 6.25781 16.579 6.25781 16.6367H5.25781ZM5.74905 17.2988C5.93747 17.393 6.1333 17.3788 6.27579 17.3313C6.41828 17.2838 6.58347 17.1776 6.67768 16.9892L5.78326 16.542C5.83449 16.4395 5.91375 16.3979 5.95956 16.3826C6.00537 16.3673 6.09378 16.3531 6.19626 16.4043L5.74905 17.2988ZM6.73047 16.7656C6.73047 16.6386 6.6979 16.4889 6.59974 16.3515C6.50075 16.2129 6.36238 16.125 6.21671 16.0764L5.90048 17.0251C5.88372 17.0195 5.83128 16.9961 5.786 16.9327C5.74155 16.8705 5.73047 16.8067 5.73047 16.7656H6.73047ZM6.21671 16.0764C5.9413 15.9846 5.5024 16.0295 5.3106 16.4131L6.20503 16.8603C6.15094 16.9685 6.0649 17.0107 6.01965 17.0243C5.97033 17.0391 5.92933 17.0347 5.90048 17.0251L6.21671 16.0764ZM7.69141 16.0938C7.51333 16.0938 7.32608 16.1553 7.18209 16.2993C7.0381 16.4433 6.97656 16.6305 6.97656 16.8086H7.97656C7.97656 16.8578 7.95799 16.9376 7.8892 17.0064C7.82041 17.0752 7.74058 17.0938 7.69141 17.0938V16.0938ZM6.97656 16.8086C6.97656 17.1539 7.24351 17.3224 7.39901 17.3742C7.56431 17.4293 7.74071 17.4195 7.89249 17.3689L7.57626 16.4202C7.59914 16.4126 7.64663 16.4027 7.71524 16.4256C7.75065 16.4374 7.81106 16.4649 7.86796 16.5272C7.93052 16.5957 7.97656 16.6947 7.97656 16.8086H6.97656ZM7.89249 17.3689C7.94672 17.3508 8.08974 17.3048 8.20486 17.2088C8.27303 17.152 8.36474 17.051 8.40184 16.8964C8.44018 16.7367 8.40209 16.5963 8.35346 16.4991L7.45904 16.9463C7.4319 16.892 7.39918 16.7892 7.42946 16.663C7.4585 16.542 7.52872 16.4706 7.56467 16.4406C7.59856 16.4124 7.62361 16.4025 7.61747 16.4052C7.6142 16.4067 7.60272 16.4114 7.57626 16.4202L7.89249 17.3689ZM8.40625 16.7227C8.40625 16.4395 8.21664 16.2612 8.09605 16.1859C7.96871 16.1063 7.72338 16.0187 7.4678 16.1465L7.91501 17.041C7.74537 17.1258 7.60746 17.0597 7.56606 17.0339C7.53607 17.0151 7.50262 16.9868 7.47316 16.9441C7.44437 16.9023 7.40625 16.8266 7.40625 16.7227H8.40625ZM10.4844 -0.40625C4.27854 -0.40625 -0.5 4.37229 -0.5 10.5781H0.5C0.5 4.92458 4.83083 0.59375 10.4844 0.59375V-0.40625ZM-0.5 10.5781C-0.5 15.5586 2.59821 19.8331 7.10077 21.364L7.42267 20.4172C3.33147 19.0262 0.5 15.1367 0.5 10.5781H-0.5ZM7.18569 21.3848C7.5762 21.4449 7.9287 21.3643 8.18125 21.1238C8.41809 20.8982 8.49219 20.602 8.49219 20.375H7.49219C7.49219 20.3858 7.49012 20.3963 7.48767 20.4029C7.48565 20.4084 7.48568 20.4053 7.4916 20.3997C7.49917 20.3924 7.50216 20.3944 7.48782 20.3981C7.47082 20.4025 7.42482 20.4098 7.33775 20.3964L7.18569 21.3848ZM8.49219 20.375C8.49219 20.3744 8.49219 20.3738 8.49219 20.3732C8.49219 20.3726 8.49219 20.372 8.49219 20.3714C8.49219 20.3708 8.49219 20.3702 8.49219 20.3696C8.49219 20.369 8.49219 20.3684 8.49219 20.3677C8.49219 20.3671 8.49219 20.3665 8.49219 20.3659C8.49219 20.3652 8.49219 20.3646 8.49219 20.364C8.49219 20.3633 8.49219 20.3627 8.49219 20.362C8.49219 20.3614 8.49219 20.3607 8.49219 20.3601C8.49219 20.3594 8.49219 20.3587 8.49219 20.3581C8.49219 20.3574 8.49219 20.3567 8.49219 20.3561C8.49219 20.3554 8.49219 20.3547 8.49219 20.354C8.49219 20.3533 8.49219 20.3527 8.49219 20.352C8.49219 20.3513 8.49219 20.3506 8.49219 20.3499C8.49219 20.3492 8.49219 20.3485 8.49219 20.3478C8.49219 20.347 8.49219 20.3463 8.49219 20.3456C8.49219 20.3449 8.49219 20.3442 8.49219 20.3435C8.49219 20.3427 8.49219 20.342 8.49219 20.3413C8.49219 20.3405 8.49219 20.3398 8.49219 20.3391C8.49219 20.3383 8.49219 20.3376 8.49219 20.3368C8.49219 20.3361 8.49219 20.3353 8.49219 20.3345C8.49219 20.3338 8.49219 20.333 8.49219 20.3323C8.49219 20.3315 8.49219 20.3307 8.49219 20.3299C8.49219 20.3292 8.49219 20.3284 8.49219 20.3276C8.49219 20.3268 8.49219 20.326 8.49219 20.3252C8.49219 20.3244 8.49219 20.3236 8.49219 20.3228C8.49219 20.322 8.49219 20.3212 8.49219 20.3204C8.49219 20.3196 8.49219 20.3188 8.49219 20.318C8.49219 20.3172 8.49219 20.3164 8.49219 20.3155C8.49219 20.3147 8.49219 20.3139 8.49219 20.313C8.49219 20.3122 8.49219 20.3114 8.49219 20.3105C8.49219 20.3097 8.49219 20.3088 8.49219 20.308C8.49219 20.3071 8.49219 20.3063 8.49219 20.3054C8.49219 20.3046 8.49219 20.3037 8.49219 20.3028C8.49219 20.302 8.49219 20.3011 8.49219 20.3002C8.49219 20.2994 8.49219 20.2985 8.49219 20.2976C8.49219 20.2967 8.49219 20.2958 8.49219 20.2949C8.49219 20.2941 8.49219 20.2932 8.49219 20.2923C8.49219 20.2914 8.49219 20.2905 8.49219 20.2896C8.49219 20.2887 8.49219 20.2877 8.49219 20.2868C8.49219 20.2859 8.49219 20.285 8.49219 20.2841C8.49219 20.2832 8.49219 20.2822 8.49219 20.2813C8.49219 20.2804 8.49219 20.2794 8.49219 20.2785C8.49219 20.2776 8.49219 20.2766 8.49219 20.2757C8.49219 20.2747 8.49219 20.2738 8.49219 20.2728C8.49219 20.2719 8.49219 20.2709 8.49219 20.27C8.49219 20.269 8.49219 20.268 8.49219 20.2671C8.49219 20.2661 8.49219 20.2651 8.49219 20.2642C8.49219 20.2632 8.49219 20.2622 8.49219 20.2612C8.49219 20.2602 8.49219 20.2593 8.49219 20.2583C8.49219 20.2573 8.49219 20.2563 8.49219 20.2553C8.49219 20.2543 8.49219 20.2533 8.49219 20.2523C8.49219 20.2513 8.49219 20.2503 8.49219 20.2493C8.49219 20.2482 8.49219 20.2472 8.49219 20.2462C8.49219 20.2452 8.49219 20.2442 8.49219 20.2431C8.49219 20.2421 8.49219 20.2411 8.49219 20.24C8.49219 20.239 8.49219 20.238 8.49219 20.2369C8.49219 20.2359 8.49219 20.2348 8.49219 20.2338C8.49219 20.2327 8.49219 20.2317 8.49219 20.2306C8.49219 20.2296 8.49219 20.2285 8.49219 20.2274C8.49219 20.2264 8.49219 20.2253 8.49219 20.2242C8.49219 20.2232 8.49219 20.2221 8.49219 20.221C8.49219 20.2199 8.49219 20.2188 8.49219 20.2177C8.49219 20.2167 8.49219 20.2156 8.49219 20.2145C8.49219 20.2134 8.49219 20.2123 8.49219 20.2112C8.49219 20.2101 8.49219 20.209 8.49219 20.2079C8.49219 20.2068 8.49219 20.2056 8.49219 20.2045C8.49219 20.2034 8.49219 20.2023 8.49219 20.2012C8.49219 20.2 8.49219 20.1989 8.49219 20.1978C8.49219 20.1967 8.49219 20.1955 8.49219 20.1944C8.49219 20.1933 8.49219 20.1921 8.49219 20.191C8.49219 20.1898 8.49219 20.1887 8.49219 20.1875C8.49219 20.1864 8.49219 20.1852 8.49219 20.1841C8.49219 20.1829 8.49219 20.1817 8.49219 20.1806C8.49219 20.1794 8.49219 20.1782 8.49219 20.1771C8.49219 20.1759 8.49219 20.1747 8.49219 20.1735C8.49219 20.1724 8.49219 20.1712 8.49219 20.17C8.49219 20.1688 8.49219 20.1676 8.49219 20.1664C8.49219 20.1652 8.49219 20.164 8.49219 20.1628C8.49219 20.1616 8.49219 20.1604 8.49219 20.1592C8.49219 20.158 8.49219 20.1568 8.49219 20.1556C8.49219 20.1544 8.49219 20.1532 8.49219 20.1519C8.49219 20.1507 8.49219 20.1495 8.49219 20.1483C8.49219 20.147 8.49219 20.1458 8.49219 20.1446C8.49219 20.1433 8.49219 20.1421 8.49219 20.1409C8.49219 20.1396 8.49219 20.1384 8.49219 20.1371C8.49219 20.1359 8.49219 20.1346 8.49219 20.1334C8.49219 20.1321 8.49219 20.1309 8.49219 20.1296C8.49219 20.1284 8.49219 20.1271 8.49219 20.1258C8.49219 20.1246 8.49219 20.1233 8.49219 20.122C8.49219 20.1207 8.49219 20.1195 8.49219 20.1182C8.49219 20.1169 8.49219 20.1156 8.49219 20.1143C8.49219 20.113 8.49219 20.1117 8.49219 20.1105C8.49219 20.1092 8.49219 20.1079 8.49219 20.1066C8.49219 20.1053 8.49219 20.104 8.49219 20.1027C8.49219 20.1014 8.49219 20.1 8.49219 20.0987C8.49219 20.0974 8.49219 20.0961 8.49219 20.0948C8.49219 20.0935 8.49219 20.0921 8.49219 20.0908C8.49219 20.0895 8.49219 20.0882 8.49219 20.0868C8.49219 20.0855 8.49219 20.0842 8.49219 20.0828C8.49219 20.0815 8.49219 20.0801 8.49219 20.0788C8.49219 20.0775 8.49219 20.0761 8.49219 20.0748C8.49219 20.0734 8.49219 20.0721 8.49219 20.0707C8.49219 20.0693 8.49219 20.068 8.49219 20.0666C8.49219 20.0652 8.49219 20.0639 8.49219 20.0625C8.49219 20.0611 8.49219 20.0598 8.49219 20.0584C8.49219 20.057 8.49219 20.0556 8.49219 20.0543C8.49219 20.0529 8.49219 20.0515 8.49219 20.0501C8.49219 20.0487 8.49219 20.0473 8.49219 20.0459C8.49219 20.0445 8.49219 20.0431 8.49219 20.0417C8.49219 20.0403 8.49219 20.0389 8.49219 20.0375C8.49219 20.0361 8.49219 20.0347 8.49219 20.0333C8.49219 20.0319 8.49219 20.0305 8.49219 20.0291C8.49219 20.0276 8.49219 20.0262 8.49219 20.0248C8.49219 20.0234 8.49219 20.0219 8.49219 20.0205C8.49219 20.0191 8.49219 20.0176 8.49219 20.0162C8.49219 20.0148 8.49219 20.0133 8.49219 20.0119C8.49219 20.0105 8.49219 20.009 8.49219 20.0076C8.49219 20.0061 8.49219 20.0047 8.49219 20.0032C8.49219 20.0018 8.49219 20.0003 8.49219 19.9988C8.49219 19.9974 8.49219 19.9959 8.49219 19.9945C8.49219 19.993 8.49219 19.9915 8.49219 19.99C8.49219 19.9886 8.49219 19.9871 8.49219 19.9856C8.49219 19.9842 8.49219 19.9827 8.49219 19.9812C8.49219 19.9797 8.49219 19.9782 8.49219 19.9767C8.49219 19.9752 8.49219 19.9738 8.49219 19.9723C8.49219 19.9708 8.49219 19.9693 8.49219 19.9678C8.49219 19.9663 8.49219 19.9648 8.49219 19.9633C8.49219 19.9618 8.49219 19.9603 8.49219 19.9587C8.49219 19.9572 8.49219 19.9557 8.49219 19.9542C8.49219 19.9527 8.49219 19.9512 8.49219 19.9496C8.49219 19.9481 8.49219 19.9466 8.49219 19.9451C8.49219 19.9435 8.49219 19.942 8.49219 19.9405C8.49219 19.9389 8.49219 19.9374 8.49219 19.9359C8.49219 19.9343 8.49219 19.9328 8.49219 19.9313C8.49219 19.9297 8.49219 19.9282 8.49219 19.9266C8.49219 19.9251 8.49219 19.9235 8.49219 19.922C8.49219 19.9204 8.49219 19.9188 8.49219 19.9173C8.49219 19.9157 8.49219 19.9142 8.49219 19.9126C8.49219 19.911 8.49219 19.9095 8.49219 19.9079C8.49219 19.9063 8.49219 19.9048 8.49219 19.9032C8.49219 19.9016 8.49219 19.9 8.49219 19.8984C8.49219 19.8969 8.49219 19.8953 8.49219 19.8937C8.49219 19.8921 8.49219 19.8905 8.49219 19.8889C8.49219 19.8873 8.49219 19.8857 8.49219 19.8841C8.49219 19.8825 8.49219 19.8809 8.49219 19.8793C8.49219 19.8777 8.49219 19.8761 8.49219 19.8745C8.49219 19.8729 8.49219 19.8713 8.49219 19.8697C8.49219 19.8681 8.49219 19.8665 8.49219 19.8649C8.49219 19.8632 8.49219 19.8616 8.49219 19.86C8.49219 19.8584 8.49219 19.8568 8.49219 19.8551C8.49219 19.8535 8.49219 19.8519 8.49219 19.8502C8.49219 19.8486 8.49219 19.847 8.49219 19.8453C8.49219 19.8437 8.49219 19.8421 8.49219 19.8404C8.49219 19.8388 8.49219 19.8371 8.49219 19.8355C8.49219 19.8338 8.49219 19.8322 8.49219 19.8305C8.49219 19.8289 8.49219 19.8272 8.49219 19.8256C8.49219 19.8239 8.49219 19.8223 8.49219 19.8206C8.49219 19.8189 8.49219 19.8173 8.49219 19.8156C8.49219 19.8139 8.49219 19.8123 8.49219 19.8106C8.49219 19.8089 8.49219 19.8073 8.49219 19.8056C8.49219 19.8039 8.49219 19.8022 8.49219 19.8005C8.49219 19.7989 8.49219 19.7972 8.49219 19.7955C8.49219 19.7938 8.49219 19.7921 8.49219 19.7904C8.49219 19.7887 8.49219 19.7871 8.49219 19.7854C8.49219 19.7837 8.49219 19.782 8.49219 19.7803C8.49219 19.7786 8.49219 19.7769 8.49219 19.7752C8.49219 19.7735 8.49219 19.7718 8.49219 19.77C8.49219 19.7683 8.49219 19.7666 8.49219 19.7649C8.49219 19.7632 8.49219 19.7615 8.49219 19.7598C8.49219 19.758 8.49219 19.7563 8.49219 19.7546C8.49219 19.7529 8.49219 19.7512 8.49219 19.7494C8.49219 19.7477 8.49219 19.746 8.49219 19.7442C8.49219 19.7425 8.49219 19.7408 8.49219 19.739C8.49219 19.7373 8.49219 19.7356 8.49219 19.7338C8.49219 19.7321 8.49219 19.7304 8.49219 19.7286C8.49219 19.7269 8.49219 19.7251 8.49219 19.7234C8.49219 19.7216 8.49219 19.7199 8.49219 19.7181C8.49219 19.7164 8.49219 19.7146 8.49219 19.7128C8.49219 19.7111 8.49219 19.7093 8.49219 19.7076C8.49219 19.7058 8.49219 19.704 8.49219 19.7023C8.49219 19.7005 8.49219 19.6987 8.49219 19.697C8.49219 19.6952 8.49219 19.6934 8.49219 19.6917C8.49219 19.6899 8.49219 19.6881 8.49219 19.6863C8.49219 19.6846 8.49219 19.6828 8.49219 19.681C8.49219 19.6792 8.49219 19.6774 8.49219 19.6756C8.49219 19.6738 8.49219 19.6721 8.49219 19.6703C8.49219 19.6685 8.49219 19.6667 8.49219 19.6649C8.49219 19.6631 8.49219 19.6613 8.49219 19.6595C8.49219 19.6577 8.49219 19.6559 8.49219 19.6541C8.49219 19.6523 8.49219 19.6505 8.49219 19.6487C8.49219 19.6469 8.49219 19.6451 8.49219 19.6433C8.49219 19.6414 8.49219 19.6396 8.49219 19.6378C8.49219 19.636 8.49219 19.6342 8.49219 19.6324C8.49219 19.6305 8.49219 19.6287 8.49219 19.6269C8.49219 19.6251 8.49219 19.6233 8.49219 19.6214C8.49219 19.6196 8.49219 19.6178 8.49219 19.6159C8.49219 19.6141 8.49219 19.6123 8.49219 19.6104C8.49219 19.6086 8.49219 19.6068 8.49219 19.6049C8.49219 19.6031 8.49219 19.6013 8.49219 19.5994C8.49219 19.5976 8.49219 19.5957 8.49219 19.5939C8.49219 19.592 8.49219 19.5902 8.49219 19.5883C8.49219 19.5865 8.49219 19.5846 8.49219 19.5828C8.49219 19.5809 8.49219 19.5791 8.49219 19.5772C8.49219 19.5754 8.49219 19.5735 8.49219 19.5717C8.49219 19.5698 8.49219 19.5679 8.49219 19.5661C8.49219 19.5642 8.49219 19.5623 8.49219 19.5605C8.49219 19.5586 8.49219 19.5567 8.49219 19.5549C8.49219 19.553 8.49219 19.5511 8.49219 19.5492C8.49219 19.5474 8.49219 19.5455 8.49219 19.5436C8.49219 19.5417 8.49219 19.5399 8.49219 19.538C8.49219 19.5361 8.49219 19.5342 8.49219 19.5323C8.49219 19.5304 8.49219 19.5286 8.49219 19.5267C8.49219 19.5248 8.49219 19.5229 8.49219 19.521C8.49219 19.5191 8.49219 19.5172 8.49219 19.5153C8.49219 19.5134 8.49219 19.5115 8.49219 19.5096C8.49219 19.5077 8.49219 19.5058 8.49219 19.5039C8.49219 19.502 8.49219 19.5001 8.49219 19.4982C8.49219 19.4963 8.49219 19.4944 8.49219 19.4925C8.49219 19.4906 8.49219 19.4887 8.49219 19.4868C8.49219 19.4849 8.49219 19.4829 8.49219 19.481C8.49219 19.4791 8.49219 19.4772 8.49219 19.4753C8.49219 19.4734 8.49219 19.4714 8.49219 19.4695C8.49219 19.4676 8.49219 19.4657 8.49219 19.4637C8.49219 19.4618 8.49219 19.4599 8.49219 19.458C8.49219 19.456 8.49219 19.4541 8.49219 19.4522C8.49219 19.4503 8.49219 19.4483 8.49219 19.4464C8.49219 19.4445 8.49219 19.4425 8.49219 19.4406C8.49219 19.4386 8.49219 19.4367 8.49219 19.4348C8.49219 19.4328 8.49219 19.4309 8.49219 19.4289C8.49219 19.427 8.49219 19.4251 8.49219 19.4231C8.49219 19.4212 8.49219 19.4192 8.49219 19.4173C8.49219 19.4153 8.49219 19.4134 8.49219 19.4114C8.49219 19.4095 8.49219 19.4075 8.49219 19.4056C8.49219 19.4036 8.49219 19.4016 8.49219 19.3997C8.49219 19.3977 8.49219 19.3958 8.49219 19.3938C8.49219 19.3918 8.49219 19.3899 8.49219 19.3879C8.49219 19.386 8.49219 19.384 8.49219 19.382C8.49219 19.3801 8.49219 19.3781 8.49219 19.3761C8.49219 19.3742 8.49219 19.3722 8.49219 19.3702C8.49219 19.3682 8.49219 19.3663 8.49219 19.3643C8.49219 19.3623 8.49219 19.3604 8.49219 19.3584C8.49219 19.3564 8.49219 19.3544 8.49219 19.3524C8.49219 19.3505 8.49219 19.3485 8.49219 19.3465C8.49219 19.3445 8.49219 19.3425 8.49219 19.3405C8.49219 19.3386 8.49219 19.3366 8.49219 19.3346C8.49219 19.3326 8.49219 19.3306 8.49219 19.3286C8.49219 19.3266 8.49219 19.3246 8.49219 19.3226C8.49219 19.3207 8.49219 19.3187 8.49219 19.3167C8.49219 19.3147 8.49219 19.3127 8.49219 19.3107C8.49219 19.3087 8.49219 19.3067 8.49219 19.3047C8.49219 19.3027 8.49219 19.3007 8.49219 19.2987C8.49219 19.2967 8.49219 19.2947 8.49219 19.2927C8.49219 19.2907 8.49219 19.2887 8.49219 19.2867C8.49219 19.2846 8.49219 19.2826 8.49219 19.2806C8.49219 19.2786 8.49219 19.2766 8.49219 19.2746C8.49219 19.2726 8.49219 19.2706 8.49219 19.2686C8.49219 19.2665 8.49219 19.2645 8.49219 19.2625C8.49219 19.2605 8.49219 19.2585 8.49219 19.2565C8.49219 19.2544 8.49219 19.2524 8.49219 19.2504C8.49219 19.2484 8.49219 19.2464 8.49219 19.2443C8.49219 19.2423 8.49219 19.2403 8.49219 19.2383C8.49219 19.2362 8.49219 19.2342 8.49219 19.2322C8.49219 19.2302 8.49219 19.2281 8.49219 19.2261C8.49219 19.2241 8.49219 19.222 8.49219 19.22C8.49219 19.218 8.49219 19.2159 8.49219 19.2139C8.49219 19.2119 8.49219 19.2098 8.49219 19.2078C8.49219 19.2058 8.49219 19.2037 8.49219 19.2017C8.49219 19.1996 8.49219 19.1976 8.49219 19.1956C8.49219 19.1935 8.49219 19.1915 8.49219 19.1894C8.49219 19.1874 8.49219 19.1854 8.49219 19.1833C8.49219 19.1813 8.49219 19.1792 8.49219 19.1772C8.49219 19.1751 8.49219 19.1731 8.49219 19.171C8.49219 19.169 8.49219 19.167 8.49219 19.1649C8.49219 19.1629 8.49219 19.1608 8.49219 19.1587C8.49219 19.1567 8.49219 19.1546 8.49219 19.1526C8.49219 19.1505 8.49219 19.1485 8.49219 19.1464C8.49219 19.1444 8.49219 19.1423 8.49219 19.1403C8.49219 19.1382 8.49219 19.1361 8.49219 19.1341C8.49219 19.132 8.49219 19.13 8.49219 19.1279C8.49219 19.1259 8.49219 19.1238 8.49219 19.1217C8.49219 19.1197 8.49219 19.1176 8.49219 19.1155C8.49219 19.1135 8.49219 19.1114 8.49219 19.1093C8.49219 19.1073 8.49219 19.1052 8.49219 19.1032C8.49219 19.1011 8.49219 19.099 8.49219 19.0969C8.49219 19.0949 8.49219 19.0928 8.49219 19.0907C8.49219 19.0887 8.49219 19.0866 8.49219 19.0845C8.49219 19.0825 8.49219 19.0804 8.49219 19.0783C8.49219 19.0762 8.49219 19.0742 8.49219 19.0721C8.49219 19.07 8.49219 19.0679 8.49219 19.0659C8.49219 19.0638 8.49219 19.0617 8.49219 19.0596C8.49219 19.0576 8.49219 19.0555 8.49219 19.0534C8.49219 19.0513 8.49219 19.0492 8.49219 19.0472C8.49219 19.0451 8.49219 19.043 8.49219 19.0409C8.49219 19.0388 8.49219 19.0368 8.49219 19.0347C8.49219 19.0326 8.49219 19.0305 8.49219 19.0284C8.49219 19.0263 8.49219 19.0243 8.49219 19.0222C8.49219 19.0201 8.49219 19.018 8.49219 19.0159C8.49219 19.0138 8.49219 19.0117 8.49219 19.0096C8.49219 19.0076 8.49219 19.0055 8.49219 19.0034C8.49219 19.0013 8.49219 18.9992 8.49219 18.9971C8.49219 18.995 8.49219 18.9929 8.49219 18.9908C8.49219 18.9887 8.49219 18.9867 8.49219 18.9846C8.49219 18.9825 8.49219 18.9804 8.49219 18.9783C8.49219 18.9762 8.49219 18.9741 8.49219 18.972C8.49219 18.9699 8.49219 18.9678 8.49219 18.9657C8.49219 18.9636 8.49219 18.9615 8.49219 18.9594C8.49219 18.9573 8.49219 18.9552 8.49219 18.9531C8.49219 18.951 8.49219 18.9489 8.49219 18.9468C8.49219 18.9447 8.49219 18.9426 8.49219 18.9405C8.49219 18.9384 8.49219 18.9363 8.49219 18.9342C8.49219 18.9321 8.49219 18.93 8.49219 18.9279C8.49219 18.9258 8.49219 18.9237 8.49219 18.9216C8.49219 18.9195 8.49219 18.9174 8.49219 18.9153C8.49219 18.9132 8.49219 18.9111 8.49219 18.909C8.49219 18.9069 8.49219 18.9048 8.49219 18.9027C8.49219 18.9006 8.49219 18.8985 8.49219 18.8964C8.49219 18.8943 8.49219 18.8922 8.49219 18.8901C8.49219 18.888 8.49219 18.8858 8.49219 18.8837C8.49219 18.8816 8.49219 18.8795 8.49219 18.8774C8.49219 18.8753 8.49219 18.8732 8.49219 18.8711C8.49219 18.869 8.49219 18.8669 8.49219 18.8648C8.49219 18.8627 8.49219 18.8605 8.49219 18.8584C8.49219 18.8563 8.49219 18.8542 8.49219 18.8521C8.49219 18.85 8.49219 18.8479 8.49219 18.8458C8.49219 18.8437 8.49219 18.8416 8.49219 18.8394C8.49219 18.8373 8.49219 18.8352 8.49219 18.8331C8.49219 18.831 8.49219 18.8289 8.49219 18.8268C8.49219 18.8247 8.49219 18.8225 8.49219 18.8204C8.49219 18.8183 8.49219 18.8162 8.49219 18.8141C8.49219 18.812 8.49219 18.8099 8.49219 18.8078C8.49219 18.8056 8.49219 18.8035 8.49219 18.8014C8.49219 18.7993 8.49219 18.7972 8.49219 18.7951C8.49219 18.793 8.49219 18.7908 8.49219 18.7887C8.49219 18.7866 8.49219 18.7845 8.49219 18.7824C8.49219 18.7803 8.49219 18.7781 8.49219 18.776C8.49219 18.7739 8.49219 18.7718 8.49219 18.7697C8.49219 18.7676 8.49219 18.7655 8.49219 18.7633C8.49219 18.7612 8.49219 18.7591 8.49219 18.757C8.49219 18.7549 8.49219 18.7528 8.49219 18.7506C8.49219 18.7485 8.49219 18.7464 8.49219 18.7443C8.49219 18.7422 8.49219 18.7401 8.49219 18.7379C8.49219 18.7358 8.49219 18.7337 8.49219 18.7316C8.49219 18.7295 8.49219 18.7274 8.49219 18.7252C8.49219 18.7231 8.49219 18.721 8.49219 18.7189C8.49219 18.7168 8.49219 18.7147 8.49219 18.7125C8.49219 18.7104 8.49219 18.7083 8.49219 18.7062C8.49219 18.7041 8.49219 18.702 8.49219 18.6998C8.49219 18.6977 8.49219 18.6956 8.49219 18.6935C8.49219 18.6914 8.49219 18.6892 8.49219 18.6871C8.49219 18.685 8.49219 18.6829 8.49219 18.6808C8.49219 18.6787 8.49219 18.6765 8.49219 18.6744C8.49219 18.6723 8.49219 18.6702 8.49219 18.6681C8.49219 18.666 8.49219 18.6639 8.49219 18.6617C8.49219 18.6596 8.49219 18.6575 8.49219 18.6554C8.49219 18.6533 8.49219 18.6512 8.49219 18.649C8.49219 18.6469 8.49219 18.6448 8.49219 18.6427C8.49219 18.6406 8.49219 18.6385 8.49219 18.6363C8.49219 18.6342 8.49219 18.6321 8.49219 18.63C8.49219 18.6279 8.49219 18.6258 8.49219 18.6237C8.49219 18.6215 8.49219 18.6194 8.49219 18.6173C8.49219 18.6152 8.49219 18.6131 8.49219 18.611C8.49219 18.6089 8.49219 18.6067 8.49219 18.6046C8.49219 18.6025 8.49219 18.6004 8.49219 18.5983C8.49219 18.5962 8.49219 18.5941 8.49219 18.5919C8.49219 18.5898 8.49219 18.5877 8.49219 18.5856C8.49219 18.5835 8.49219 18.5814 8.49219 18.5793C8.49219 18.5772 8.49219 18.5751 8.49219 18.5729C8.49219 18.5708 8.49219 18.5687 8.49219 18.5666C8.49219 18.5645 8.49219 18.5624 8.49219 18.5603C8.49219 18.5582 8.49219 18.5561 8.49219 18.5539C8.49219 18.5518 8.49219 18.5497 8.49219 18.5476C8.49219 18.5455 8.49219 18.5434 8.49219 18.5413C8.49219 18.5392 8.49219 18.5371 8.49219 18.535C8.49219 18.5329 8.49219 18.5308 8.49219 18.5287C8.49219 18.5265 8.49219 18.5244 8.49219 18.5223C8.49219 18.5202 8.49219 18.5181 8.49219 18.516C8.49219 18.5139 8.49219 18.5118 8.49219 18.5097C8.49219 18.5076 8.49219 18.5055 8.49219 18.5034C8.49219 18.5013 8.49219 18.4992 8.49219 18.4971C8.49219 18.495 8.49219 18.4929 8.49219 18.4908C8.49219 18.4887 8.49219 18.4866 8.49219 18.4845C8.49219 18.4824 8.49219 18.4803 8.49219 18.4782C8.49219 18.4761 8.49219 18.474 8.49219 18.4719C8.49219 18.4698 8.49219 18.4677 8.49219 18.4656C8.49219 18.4635 8.49219 18.4614 8.49219 18.4593C8.49219 18.4572 8.49219 18.4551 8.49219 18.453C8.49219 18.4509 8.49219 18.4488 8.49219 18.4467C8.49219 18.4446 8.49219 18.4425 8.49219 18.4404C8.49219 18.4383 8.49219 18.4362 8.49219 18.4341C8.49219 18.4321 8.49219 18.43 8.49219 18.4279C8.49219 18.4258 8.49219 18.4237 8.49219 18.4216C8.49219 18.4195 8.49219 18.4174 8.49219 18.4153C8.49219 18.4132 8.49219 18.4111 8.49219 18.4091C8.49219 18.407 8.49219 18.4049 8.49219 18.4028C8.49219 18.4007 8.49219 18.3986 8.49219 18.3965C8.49219 18.3944 8.49219 18.3924 8.49219 18.3903C8.49219 18.3882 8.49219 18.3861 8.49219 18.384C8.49219 18.3819 8.49219 18.3799 8.49219 18.3778C8.49219 18.3757 8.49219 18.3736 8.49219 18.3715C8.49219 18.3695 8.49219 18.3674 8.49219 18.3653C8.49219 18.3632 8.49219 18.3611 8.49219 18.3591C8.49219 18.357 8.49219 18.3549 8.49219 18.3528C8.49219 18.3508 8.49219 18.3487 8.49219 18.3466C8.49219 18.3445 8.49219 18.3425 8.49219 18.3404C8.49219 18.3383 8.49219 18.3362 8.49219 18.3342C8.49219 18.3321 8.49219 18.33 8.49219 18.328C8.49219 18.3259 8.49219 18.3238 8.49219 18.3217C8.49219 18.3197 8.49219 18.3176 8.49219 18.3155C8.49219 18.3135 8.49219 18.3114 8.49219 18.3093C8.49219 18.3073 8.49219 18.3052 8.49219 18.3031C8.49219 18.3011 8.49219 18.299 8.49219 18.297C8.49219 18.2949 8.49219 18.2928 8.49219 18.2908C8.49219 18.2887 8.49219 18.2867 8.49219 18.2846C8.49219 18.2825 8.49219 18.2805 8.49219 18.2784C8.49219 18.2764 8.49219 18.2743 8.49219 18.2723C8.49219 18.2702 8.49219 18.2681 8.49219 18.2661C8.49219 18.264 8.49219 18.262 8.49219 18.2599C8.49219 18.2579 8.49219 18.2558 8.49219 18.2538C8.49219 18.2517 8.49219 18.2497 8.49219 18.2476C8.49219 18.2456 8.49219 18.2435 8.49219 18.2415C8.49219 18.2394 8.49219 18.2374 8.49219 18.2354C8.49219 18.2333 8.49219 18.2313 8.49219 18.2292C8.49219 18.2272 8.49219 18.2251 8.49219 18.2231C8.49219 18.2211 8.49219 18.219 8.49219 18.217C8.49219 18.2149 8.49219 18.2129 8.49219 18.2109C8.49219 18.2088 8.49219 18.2068 8.49219 18.2048C8.49219 18.2027 8.49219 18.2007 8.49219 18.1987C8.49219 18.1966 8.49219 18.1946 8.49219 18.1926C8.49219 18.1905 8.49219 18.1885 8.49219 18.1865C8.49219 18.1845 8.49219 18.1824 8.49219 18.1804C8.49219 18.1784 8.49219 18.1764 8.49219 18.1743C8.49219 18.1723 8.49219 18.1703 8.49219 18.1683C8.49219 18.1662 8.49219 18.1642 8.49219 18.1622C8.49219 18.1602 8.49219 18.1582 8.49219 18.1562C8.49219 18.1541 8.49219 18.1521 8.49219 18.1501C8.49219 18.1481 8.49219 18.1461 8.49219 18.1441C8.49219 18.1421 8.49219 18.14 8.49219 18.138C8.49219 18.136 8.49219 18.134 8.49219 18.132C8.49219 18.13 8.49219 18.128 8.49219 18.126C8.49219 18.124 8.49219 18.122 8.49219 18.12C8.49219 18.118 8.49219 18.116 8.49219 18.114C8.49219 18.112 8.49219 18.11 8.49219 18.108C8.49219 18.106 8.49219 18.104 8.49219 18.102C8.49219 18.1 8.49219 18.098 8.49219 18.096C8.49219 18.094 8.49219 18.092 8.49219 18.09C8.49219 18.088 8.49219 18.086 8.49219 18.0841C8.49219 18.0821 8.49219 18.0801 8.49219 18.0781C8.49219 18.0761 8.49219 18.0741 8.49219 18.0721C8.49219 18.0702 8.49219 18.0682 8.49219 18.0662C8.49219 18.0642 8.49219 18.0622 8.49219 18.0603C8.49219 18.0583 8.49219 18.0563 8.49219 18.0543C8.49219 18.0524 8.49219 18.0504 8.49219 18.0484C8.49219 18.0464 8.49219 18.0445 8.49219 18.0425C8.49219 18.0405 8.49219 18.0386 8.49219 18.0366C8.49219 18.0346 8.49219 18.0327 8.49219 18.0307C8.49219 18.0287 8.49219 18.0268 8.49219 18.0248C8.49219 18.0229 8.49219 18.0209 8.49219 18.0189C8.49219 18.017 8.49219 18.015 8.49219 18.0131C8.49219 18.0111 8.49219 18.0092 8.49219 18.0072C8.49219 18.0053 8.49219 18.0033 8.49219 18.0014C8.49219 17.9994 8.49219 17.9975 8.49219 17.9955C8.49219 17.9936 8.49219 17.9916 8.49219 17.9897C8.49219 17.9877 8.49219 17.9858 8.49219 17.9839C8.49219 17.9819 8.49219 17.98 8.49219 17.978C8.49219 17.9761 8.49219 17.9742 8.49219 17.9722C8.49219 17.9703 8.49219 17.9684 8.49219 17.9664C8.49219 17.9645 8.49219 17.9626 8.49219 17.9606C8.49219 17.9587 8.49219 17.9568 8.49219 17.9549C8.49219 17.9529 8.49219 17.951 8.49219 17.9491C8.49219 17.9472 8.49219 17.9452 8.49219 17.9433C8.49219 17.9414 8.49219 17.9395 8.49219 17.9376C8.49219 17.9357 8.49219 17.9337 8.49219 17.9318C8.49219 17.9299 8.49219 17.928 8.49219 17.9261C8.49219 17.9242 8.49219 17.9223 8.49219 17.9204C8.49219 17.9185 8.49219 17.9166 8.49219 17.9147C8.49219 17.9128 8.49219 17.9109 8.49219 17.909C8.49219 17.9071 8.49219 17.9052 8.49219 17.9033C8.49219 17.9014 8.49219 17.8995 8.49219 17.8976C8.49219 17.8957 8.49219 17.8938 8.49219 17.8919C8.49219 17.89 8.49219 17.8881 8.49219 17.8863C8.49219 17.8844 8.49219 17.8825 8.49219 17.8806C8.49219 17.8787 8.49219 17.8768 8.49219 17.875C8.49219 17.8731 8.49219 17.8712 8.49219 17.8693C8.49219 17.8675 8.49219 17.8656 8.49219 17.8637C8.49219 17.8618 8.49219 17.86 8.49219 17.8581C8.49219 17.8562 8.49219 17.8544 8.49219 17.8525C8.49219 17.8506 8.49219 17.8488 8.49219 17.8469C8.49219 17.8451 8.49219 17.8432 8.49219 17.8413C8.49219 17.8395 8.49219 17.8376 8.49219 17.8358C8.49219 17.8339 8.49219 17.8321 8.49219 17.8302C8.49219 17.8284 8.49219 17.8265 8.49219 17.8247C8.49219 17.8228 8.49219 17.821 8.49219 17.8191C8.49219 17.8173 8.49219 17.8155 8.49219 17.8136C8.49219 17.8118 8.49219 17.8099 8.49219 17.8081C8.49219 17.8063 8.49219 17.8044 8.49219 17.8026C8.49219 17.8008 8.49219 17.7989 8.49219 17.7971C8.49219 17.7953 8.49219 17.7935 8.49219 17.7916C8.49219 17.7898 8.49219 17.788 8.49219 17.7862C8.49219 17.7844 8.49219 17.7825 8.49219 17.7807C8.49219 17.7789 8.49219 17.7771 8.49219 17.7753C8.49219 17.7735 8.49219 17.7717 8.49219 17.7699C8.49219 17.768 8.49219 17.7662 8.49219 17.7644C8.49219 17.7626 8.49219 17.7608 8.49219 17.759C8.49219 17.7572 8.49219 17.7554 8.49219 17.7536C8.49219 17.7518 8.49219 17.75 8.49219 17.7483C8.49219 17.7465 8.49219 17.7447 8.49219 17.7429C8.49219 17.7411 8.49219 17.7393 8.49219 17.7375C8.49219 17.7357 8.49219 17.734 8.49219 17.7322C8.49219 17.7304 8.49219 17.7286 8.49219 17.7269C8.49219 17.7251 8.49219 17.7233 8.49219 17.7215C8.49219 17.7198 8.49219 17.718 8.49219 17.7162C8.49219 17.7145 8.49219 17.7127 8.49219 17.7109H7.49219C7.49219 17.7127 7.49219 17.7145 7.49219 17.7162C7.49219 17.718 7.49219 17.7198 7.49219 17.7215C7.49219 17.7233 7.49219 17.7251 7.49219 17.7269C7.49219 17.7286 7.49219 17.7304 7.49219 17.7322C7.49219 17.734 7.49219 17.7357 7.49219 17.7375C7.49219 17.7393 7.49219 17.7411 7.49219 17.7429C7.49219 17.7447 7.49219 17.7465 7.49219 17.7483C7.49219 17.75 7.49219 17.7518 7.49219 17.7536C7.49219 17.7554 7.49219 17.7572 7.49219 17.759C7.49219 17.7608 7.49219 17.7626 7.49219 17.7644C7.49219 17.7662 7.49219 17.768 7.49219 17.7699C7.49219 17.7717 7.49219 17.7735 7.49219 17.7753C7.49219 17.7771 7.49219 17.7789 7.49219 17.7807C7.49219 17.7825 7.49219 17.7844 7.49219 17.7862C7.49219 17.788 7.49219 17.7898 7.49219 17.7916C7.49219 17.7935 7.49219 17.7953 7.49219 17.7971C7.49219 17.7989 7.49219 17.8008 7.49219 17.8026C7.49219 17.8044 7.49219 17.8063 7.49219 17.8081C7.49219 17.8099 7.49219 17.8118 7.49219 17.8136C7.49219 17.8155 7.49219 17.8173 7.49219 17.8191C7.49219 17.821 7.49219 17.8228 7.49219 17.8247C7.49219 17.8265 7.49219 17.8284 7.49219 17.8302C7.49219 17.8321 7.49219 17.8339 7.49219 17.8358C7.49219 17.8376 7.49219 17.8395 7.49219 17.8413C7.49219 17.8432 7.49219 17.8451 7.49219 17.8469C7.49219 17.8488 7.49219 17.8506 7.49219 17.8525C7.49219 17.8544 7.49219 17.8562 7.49219 17.8581C7.49219 17.86 7.49219 17.8618 7.49219 17.8637C7.49219 17.8656 7.49219 17.8675 7.49219 17.8693C7.49219 17.8712 7.49219 17.8731 7.49219 17.875C7.49219 17.8768 7.49219 17.8787 7.49219 17.8806C7.49219 17.8825 7.49219 17.8844 7.49219 17.8863C7.49219 17.8881 7.49219 17.89 7.49219 17.8919C7.49219 17.8938 7.49219 17.8957 7.49219 17.8976C7.49219 17.8995 7.49219 17.9014 7.49219 17.9033C7.49219 17.9052 7.49219 17.9071 7.49219 17.909C7.49219 17.9109 7.49219 17.9128 7.49219 17.9147C7.49219 17.9166 7.49219 17.9185 7.49219 17.9204C7.49219 17.9223 7.49219 17.9242 7.49219 17.9261C7.49219 17.928 7.49219 17.9299 7.49219 17.9318C7.49219 17.9337 7.49219 17.9357 7.49219 17.9376C7.49219 17.9395 7.49219 17.9414 7.49219 17.9433C7.49219 17.9452 7.49219 17.9472 7.49219 17.9491C7.49219 17.951 7.49219 17.9529 7.49219 17.9549C7.49219 17.9568 7.49219 17.9587 7.49219 17.9606C7.49219 17.9626 7.49219 17.9645 7.49219 17.9664C7.49219 17.9684 7.49219 17.9703 7.49219 17.9722C7.49219 17.9742 7.49219 17.9761 7.49219 17.978C7.49219 17.98 7.49219 17.9819 7.49219 17.9839C7.49219 17.9858 7.49219 17.9877 7.49219 17.9897C7.49219 17.9916 7.49219 17.9936 7.49219 17.9955C7.49219 17.9975 7.49219 17.9994 7.49219 18.0014C7.49219 18.0033 7.49219 18.0053 7.49219 18.0072C7.49219 18.0092 7.49219 18.0111 7.49219 18.0131C7.49219 18.015 7.49219 18.017 7.49219 18.0189C7.49219 18.0209 7.49219 18.0229 7.49219 18.0248C7.49219 18.0268 7.49219 18.0287 7.49219 18.0307C7.49219 18.0327 7.49219 18.0346 7.49219 18.0366C7.49219 18.0386 7.49219 18.0405 7.49219 18.0425C7.49219 18.0445 7.49219 18.0464 7.49219 18.0484C7.49219 18.0504 7.49219 18.0524 7.49219 18.0543C7.49219 18.0563 7.49219 18.0583 7.49219 18.0603C7.49219 18.0622 7.49219 18.0642 7.49219 18.0662C7.49219 18.0682 7.49219 18.0702 7.49219 18.0721C7.49219 18.0741 7.49219 18.0761 7.49219 18.0781C7.49219 18.0801 7.49219 18.0821 7.49219 18.0841C7.49219 18.086 7.49219 18.088 7.49219 18.09C7.49219 18.092 7.49219 18.094 7.49219 18.096C7.49219 18.098 7.49219 18.1 7.49219 18.102C7.49219 18.104 7.49219 18.106 7.49219 18.108C7.49219 18.11 7.49219 18.112 7.49219 18.114C7.49219 18.116 7.49219 18.118 7.49219 18.12C7.49219 18.122 7.49219 18.124 7.49219 18.126C7.49219 18.128 7.49219 18.13 7.49219 18.132C7.49219 18.134 7.49219 18.136 7.49219 18.138C7.49219 18.14 7.49219 18.1421 7.49219 18.1441C7.49219 18.1461 7.49219 18.1481 7.49219 18.1501C7.49219 18.1521 7.49219 18.1541 7.49219 18.1562C7.49219 18.1582 7.49219 18.1602 7.49219 18.1622C7.49219 18.1642 7.49219 18.1662 7.49219 18.1683C7.49219 18.1703 7.49219 18.1723 7.49219 18.1743C7.49219 18.1764 7.49219 18.1784 7.49219 18.1804C7.49219 18.1824 7.49219 18.1845 7.49219 18.1865C7.49219 18.1885 7.49219 18.1905 7.49219 18.1926C7.49219 18.1946 7.49219 18.1966 7.49219 18.1987C7.49219 18.2007 7.49219 18.2027 7.49219 18.2048C7.49219 18.2068 7.49219 18.2088 7.49219 18.2109C7.49219 18.2129 7.49219 18.2149 7.49219 18.217C7.49219 18.219 7.49219 18.2211 7.49219 18.2231C7.49219 18.2251 7.49219 18.2272 7.49219 18.2292C7.49219 18.2313 7.49219 18.2333 7.49219 18.2354C7.49219 18.2374 7.49219 18.2394 7.49219 18.2415C7.49219 18.2435 7.49219 18.2456 7.49219 18.2476C7.49219 18.2497 7.49219 18.2517 7.49219 18.2538C7.49219 18.2558 7.49219 18.2579 7.49219 18.2599C7.49219 18.262 7.49219 18.264 7.49219 18.2661C7.49219 18.2681 7.49219 18.2702 7.49219 18.2723C7.49219 18.2743 7.49219 18.2764 7.49219 18.2784C7.49219 18.2805 7.49219 18.2825 7.49219 18.2846C7.49219 18.2867 7.49219 18.2887 7.49219 18.2908C7.49219 18.2928 7.49219 18.2949 7.49219 18.297C7.49219 18.299 7.49219 18.3011 7.49219 18.3031C7.49219 18.3052 7.49219 18.3073 7.49219 18.3093C7.49219 18.3114 7.49219 18.3135 7.49219 18.3155C7.49219 18.3176 7.49219 18.3197 7.49219 18.3217C7.49219 18.3238 7.49219 18.3259 7.49219 18.328C7.49219 18.33 7.49219 18.3321 7.49219 18.3342C7.49219 18.3362 7.49219 18.3383 7.49219 18.3404C7.49219 18.3425 7.49219 18.3445 7.49219 18.3466C7.49219 18.3487 7.49219 18.3508 7.49219 18.3528C7.49219 18.3549 7.49219 18.357 7.49219 18.3591C7.49219 18.3611 7.49219 18.3632 7.49219 18.3653C7.49219 18.3674 7.49219 18.3695 7.49219 18.3715C7.49219 18.3736 7.49219 18.3757 7.49219 18.3778C7.49219 18.3799 7.49219 18.3819 7.49219 18.384C7.49219 18.3861 7.49219 18.3882 7.49219 18.3903C7.49219 18.3924 7.49219 18.3944 7.49219 18.3965C7.49219 18.3986 7.49219 18.4007 7.49219 18.4028C7.49219 18.4049 7.49219 18.407 7.49219 18.4091C7.49219 18.4111 7.49219 18.4132 7.49219 18.4153C7.49219 18.4174 7.49219 18.4195 7.49219 18.4216C7.49219 18.4237 7.49219 18.4258 7.49219 18.4279C7.49219 18.43 7.49219 18.4321 7.49219 18.4341C7.49219 18.4362 7.49219 18.4383 7.49219 18.4404C7.49219 18.4425 7.49219 18.4446 7.49219 18.4467C7.49219 18.4488 7.49219 18.4509 7.49219 18.453C7.49219 18.4551 7.49219 18.4572 7.49219 18.4593C7.49219 18.4614 7.49219 18.4635 7.49219 18.4656C7.49219 18.4677 7.49219 18.4698 7.49219 18.4719C7.49219 18.474 7.49219 18.4761 7.49219 18.4782C7.49219 18.4803 7.49219 18.4824 7.49219 18.4845C7.49219 18.4866 7.49219 18.4887 7.49219 18.4908C7.49219 18.4929 7.49219 18.495 7.49219 18.4971C7.49219 18.4992 7.49219 18.5013 7.49219 18.5034C7.49219 18.5055 7.49219 18.5076 7.49219 18.5097C7.49219 18.5118 7.49219 18.5139 7.49219 18.516C7.49219 18.5181 7.49219 18.5202 7.49219 18.5223C7.49219 18.5244 7.49219 18.5265 7.49219 18.5287C7.49219 18.5308 7.49219 18.5329 7.49219 18.535C7.49219 18.5371 7.49219 18.5392 7.49219 18.5413C7.49219 18.5434 7.49219 18.5455 7.49219 18.5476C7.49219 18.5497 7.49219 18.5518 7.49219 18.5539C7.49219 18.5561 7.49219 18.5582 7.49219 18.5603C7.49219 18.5624 7.49219 18.5645 7.49219 18.5666C7.49219 18.5687 7.49219 18.5708 7.49219 18.5729C7.49219 18.5751 7.49219 18.5772 7.49219 18.5793C7.49219 18.5814 7.49219 18.5835 7.49219 18.5856C7.49219 18.5877 7.49219 18.5898 7.49219 18.5919C7.49219 18.5941 7.49219 18.5962 7.49219 18.5983C7.49219 18.6004 7.49219 18.6025 7.49219 18.6046C7.49219 18.6067 7.49219 18.6089 7.49219 18.611C7.49219 18.6131 7.49219 18.6152 7.49219 18.6173C7.49219 18.6194 7.49219 18.6215 7.49219 18.6237C7.49219 18.6258 7.49219 18.6279 7.49219 18.63C7.49219 18.6321 7.49219 18.6342 7.49219 18.6363C7.49219 18.6385 7.49219 18.6406 7.49219 18.6427C7.49219 18.6448 7.49219 18.6469 7.49219 18.649C7.49219 18.6512 7.49219 18.6533 7.49219 18.6554C7.49219 18.6575 7.49219 18.6596 7.49219 18.6617C7.49219 18.6639 7.49219 18.666 7.49219 18.6681C7.49219 18.6702 7.49219 18.6723 7.49219 18.6744C7.49219 18.6765 7.49219 18.6787 7.49219 18.6808C7.49219 18.6829 7.49219 18.685 7.49219 18.6871C7.49219 18.6892 7.49219 18.6914 7.49219 18.6935C7.49219 18.6956 7.49219 18.6977 7.49219 18.6998C7.49219 18.702 7.49219 18.7041 7.49219 18.7062C7.49219 18.7083 7.49219 18.7104 7.49219 18.7125C7.49219 18.7147 7.49219 18.7168 7.49219 18.7189C7.49219 18.721 7.49219 18.7231 7.49219 18.7252C7.49219 18.7274 7.49219 18.7295 7.49219 18.7316C7.49219 18.7337 7.49219 18.7358 7.49219 18.7379C7.49219 18.7401 7.49219 18.7422 7.49219 18.7443C7.49219 18.7464 7.49219 18.7485 7.49219 18.7506C7.49219 18.7528 7.49219 18.7549 7.49219 18.757C7.49219 18.7591 7.49219 18.7612 7.49219 18.7633C7.49219 18.7655 7.49219 18.7676 7.49219 18.7697C7.49219 18.7718 7.49219 18.7739 7.49219 18.776C7.49219 18.7781 7.49219 18.7803 7.49219 18.7824C7.49219 18.7845 7.49219 18.7866 7.49219 18.7887C7.49219 18.7908 7.49219 18.793 7.49219 18.7951C7.49219 18.7972 7.49219 18.7993 7.49219 18.8014C7.49219 18.8035 7.49219 18.8056 7.49219 18.8078C7.49219 18.8099 7.49219 18.812 7.49219 18.8141C7.49219 18.8162 7.49219 18.8183 7.49219 18.8204C7.49219 18.8225 7.49219 18.8247 7.49219 18.8268C7.49219 18.8289 7.49219 18.831 7.49219 18.8331C7.49219 18.8352 7.49219 18.8373 7.49219 18.8394C7.49219 18.8416 7.49219 18.8437 7.49219 18.8458C7.49219 18.8479 7.49219 18.85 7.49219 18.8521C7.49219 18.8542 7.49219 18.8563 7.49219 18.8584C7.49219 18.8605 7.49219 18.8627 7.49219 18.8648C7.49219 18.8669 7.49219 18.869 7.49219 18.8711C7.49219 18.8732 7.49219 18.8753 7.49219 18.8774C7.49219 18.8795 7.49219 18.8816 7.49219 18.8837C7.49219 18.8858 7.49219 18.888 7.49219 18.8901C7.49219 18.8922 7.49219 18.8943 7.49219 18.8964C7.49219 18.8985 7.49219 18.9006 7.49219 18.9027C7.49219 18.9048 7.49219 18.9069 7.49219 18.909C7.49219 18.9111 7.49219 18.9132 7.49219 18.9153C7.49219 18.9174 7.49219 18.9195 7.49219 18.9216C7.49219 18.9237 7.49219 18.9258 7.49219 18.9279C7.49219 18.93 7.49219 18.9321 7.49219 18.9342C7.49219 18.9363 7.49219 18.9384 7.49219 18.9405C7.49219 18.9426 7.49219 18.9447 7.49219 18.9468C7.49219 18.9489 7.49219 18.951 7.49219 18.9531C7.49219 18.9552 7.49219 18.9573 7.49219 18.9594C7.49219 18.9615 7.49219 18.9636 7.49219 18.9657C7.49219 18.9678 7.49219 18.9699 7.49219 18.972C7.49219 18.9741 7.49219 18.9762 7.49219 18.9783C7.49219 18.9804 7.49219 18.9825 7.49219 18.9846C7.49219 18.9867 7.49219 18.9887 7.49219 18.9908C7.49219 18.9929 7.49219 18.995 7.49219 18.9971C7.49219 18.9992 7.49219 19.0013 7.49219 19.0034C7.49219 19.0055 7.49219 19.0076 7.49219 19.0096C7.49219 19.0117 7.49219 19.0138 7.49219 19.0159C7.49219 19.018 7.49219 19.0201 7.49219 19.0222C7.49219 19.0243 7.49219 19.0263 7.49219 19.0284C7.49219 19.0305 7.49219 19.0326 7.49219 19.0347C7.49219 19.0368 7.49219 19.0388 7.49219 19.0409C7.49219 19.043 7.49219 19.0451 7.49219 19.0472C7.49219 19.0492 7.49219 19.0513 7.49219 19.0534C7.49219 19.0555 7.49219 19.0576 7.49219 19.0596C7.49219 19.0617 7.49219 19.0638 7.49219 19.0659C7.49219 19.0679 7.49219 19.07 7.49219 19.0721C7.49219 19.0742 7.49219 19.0762 7.49219 19.0783C7.49219 19.0804 7.49219 19.0825 7.49219 19.0845C7.49219 19.0866 7.49219 19.0887 7.49219 19.0907C7.49219 19.0928 7.49219 19.0949 7.49219 19.0969C7.49219 19.099 7.49219 19.1011 7.49219 19.1032C7.49219 19.1052 7.49219 19.1073 7.49219 19.1093C7.49219 19.1114 7.49219 19.1135 7.49219 19.1155C7.49219 19.1176 7.49219 19.1197 7.49219 19.1217C7.49219 19.1238 7.49219 19.1259 7.49219 19.1279C7.49219 19.13 7.49219 19.132 7.49219 19.1341C7.49219 19.1361 7.49219 19.1382 7.49219 19.1403C7.49219 19.1423 7.49219 19.1444 7.49219 19.1464C7.49219 19.1485 7.49219 19.1505 7.49219 19.1526C7.49219 19.1546 7.49219 19.1567 7.49219 19.1587C7.49219 19.1608 7.49219 19.1629 7.49219 19.1649C7.49219 19.167 7.49219 19.169 7.49219 19.171C7.49219 19.1731 7.49219 19.1751 7.49219 19.1772C7.49219 19.1792 7.49219 19.1813 7.49219 19.1833C7.49219 19.1854 7.49219 19.1874 7.49219 19.1894C7.49219 19.1915 7.49219 19.1935 7.49219 19.1956C7.49219 19.1976 7.49219 19.1996 7.49219 19.2017C7.49219 19.2037 7.49219 19.2058 7.49219 19.2078C7.49219 19.2098 7.49219 19.2119 7.49219 19.2139C7.49219 19.2159 7.49219 19.218 7.49219 19.22C7.49219 19.222 7.49219 19.2241 7.49219 19.2261C7.49219 19.2281 7.49219 19.2302 7.49219 19.2322C7.49219 19.2342 7.49219 19.2362 7.49219 19.2383C7.49219 19.2403 7.49219 19.2423 7.49219 19.2443C7.49219 19.2464 7.49219 19.2484 7.49219 19.2504C7.49219 19.2524 7.49219 19.2544 7.49219 19.2565C7.49219 19.2585 7.49219 19.2605 7.49219 19.2625C7.49219 19.2645 7.49219 19.2665 7.49219 19.2686C7.49219 19.2706 7.49219 19.2726 7.49219 19.2746C7.49219 19.2766 7.49219 19.2786 7.49219 19.2806C7.49219 19.2826 7.49219 19.2846 7.49219 19.2867C7.49219 19.2887 7.49219 19.2907 7.49219 19.2927C7.49219 19.2947 7.49219 19.2967 7.49219 19.2987C7.49219 19.3007 7.49219 19.3027 7.49219 19.3047C7.49219 19.3067 7.49219 19.3087 7.49219 19.3107C7.49219 19.3127 7.49219 19.3147 7.49219 19.3167C7.49219 19.3187 7.49219 19.3207 7.49219 19.3226C7.49219 19.3246 7.49219 19.3266 7.49219 19.3286C7.49219 19.3306 7.49219 19.3326 7.49219 19.3346C7.49219 19.3366 7.49219 19.3386 7.49219 19.3405C7.49219 19.3425 7.49219 19.3445 7.49219 19.3465C7.49219 19.3485 7.49219 19.3505 7.49219 19.3524C7.49219 19.3544 7.49219 19.3564 7.49219 19.3584C7.49219 19.3604 7.49219 19.3623 7.49219 19.3643C7.49219 19.3663 7.49219 19.3682 7.49219 19.3702C7.49219 19.3722 7.49219 19.3742 7.49219 19.3761C7.49219 19.3781 7.49219 19.3801 7.49219 19.382C7.49219 19.384 7.49219 19.386 7.49219 19.3879C7.49219 19.3899 7.49219 19.3918 7.49219 19.3938C7.49219 19.3958 7.49219 19.3977 7.49219 19.3997C7.49219 19.4016 7.49219 19.4036 7.49219 19.4056C7.49219 19.4075 7.49219 19.4095 7.49219 19.4114C7.49219 19.4134 7.49219 19.4153 7.49219 19.4173C7.49219 19.4192 7.49219 19.4212 7.49219 19.4231C7.49219 19.4251 7.49219 19.427 7.49219 19.4289C7.49219 19.4309 7.49219 19.4328 7.49219 19.4348C7.49219 19.4367 7.49219 19.4386 7.49219 19.4406C7.49219 19.4425 7.49219 19.4445 7.49219 19.4464C7.49219 19.4483 7.49219 19.4503 7.49219 19.4522C7.49219 19.4541 7.49219 19.456 7.49219 19.458C7.49219 19.4599 7.49219 19.4618 7.49219 19.4637C7.49219 19.4657 7.49219 19.4676 7.49219 19.4695C7.49219 19.4714 7.49219 19.4734 7.49219 19.4753C7.49219 19.4772 7.49219 19.4791 7.49219 19.481C7.49219 19.4829 7.49219 19.4849 7.49219 19.4868C7.49219 19.4887 7.49219 19.4906 7.49219 19.4925C7.49219 19.4944 7.49219 19.4963 7.49219 19.4982C7.49219 19.5001 7.49219 19.502 7.49219 19.5039C7.49219 19.5058 7.49219 19.5077 7.49219 19.5096C7.49219 19.5115 7.49219 19.5134 7.49219 19.5153C7.49219 19.5172 7.49219 19.5191 7.49219 19.521C7.49219 19.5229 7.49219 19.5248 7.49219 19.5267C7.49219 19.5286 7.49219 19.5304 7.49219 19.5323C7.49219 19.5342 7.49219 19.5361 7.49219 19.538C7.49219 19.5399 7.49219 19.5417 7.49219 19.5436C7.49219 19.5455 7.49219 19.5474 7.49219 19.5492C7.49219 19.5511 7.49219 19.553 7.49219 19.5549C7.49219 19.5567 7.49219 19.5586 7.49219 19.5605C7.49219 19.5623 7.49219 19.5642 7.49219 19.5661C7.49219 19.5679 7.49219 19.5698 7.49219 19.5717C7.49219 19.5735 7.49219 19.5754 7.49219 19.5772C7.49219 19.5791 7.49219 19.5809 7.49219 19.5828C7.49219 19.5846 7.49219 19.5865 7.49219 19.5883C7.49219 19.5902 7.49219 19.592 7.49219 19.5939C7.49219 19.5957 7.49219 19.5976 7.49219 19.5994C7.49219 19.6013 7.49219 19.6031 7.49219 19.6049C7.49219 19.6068 7.49219 19.6086 7.49219 19.6104C7.49219 19.6123 7.49219 19.6141 7.49219 19.6159C7.49219 19.6178 7.49219 19.6196 7.49219 19.6214C7.49219 19.6233 7.49219 19.6251 7.49219 19.6269C7.49219 19.6287 7.49219 19.6305 7.49219 19.6324C7.49219 19.6342 7.49219 19.636 7.49219 19.6378C7.49219 19.6396 7.49219 19.6414 7.49219 19.6433C7.49219 19.6451 7.49219 19.6469 7.49219 19.6487C7.49219 19.6505 7.49219 19.6523 7.49219 19.6541C7.49219 19.6559 7.49219 19.6577 7.49219 19.6595C7.49219 19.6613 7.49219 19.6631 7.49219 19.6649C7.49219 19.6667 7.49219 19.6685 7.49219 19.6703C7.49219 19.6721 7.49219 19.6738 7.49219 19.6756C7.49219 19.6774 7.49219 19.6792 7.49219 19.681C7.49219 19.6828 7.49219 19.6846 7.49219 19.6863C7.49219 19.6881 7.49219 19.6899 7.49219 19.6917C7.49219 19.6934 7.49219 19.6952 7.49219 19.697C7.49219 19.6987 7.49219 19.7005 7.49219 19.7023C7.49219 19.704 7.49219 19.7058 7.49219 19.7076C7.49219 19.7093 7.49219 19.7111 7.49219 19.7128C7.49219 19.7146 7.49219 19.7164 7.49219 19.7181C7.49219 19.7199 7.49219 19.7216 7.49219 19.7234C7.49219 19.7251 7.49219 19.7269 7.49219 19.7286C7.49219 19.7304 7.49219 19.7321 7.49219 19.7338C7.49219 19.7356 7.49219 19.7373 7.49219 19.739C7.49219 19.7408 7.49219 19.7425 7.49219 19.7442C7.49219 19.746 7.49219 19.7477 7.49219 19.7494C7.49219 19.7512 7.49219 19.7529 7.49219 19.7546C7.49219 19.7563 7.49219 19.758 7.49219 19.7598C7.49219 19.7615 7.49219 19.7632 7.49219 19.7649C7.49219 19.7666 7.49219 19.7683 7.49219 19.77C7.49219 19.7718 7.49219 19.7735 7.49219 19.7752C7.49219 19.7769 7.49219 19.7786 7.49219 19.7803C7.49219 19.782 7.49219 19.7837 7.49219 19.7854C7.49219 19.7871 7.49219 19.7887 7.49219 19.7904C7.49219 19.7921 7.49219 19.7938 7.49219 19.7955C7.49219 19.7972 7.49219 19.7989 7.49219 19.8005C7.49219 19.8022 7.49219 19.8039 7.49219 19.8056C7.49219 19.8073 7.49219 19.8089 7.49219 19.8106C7.49219 19.8123 7.49219 19.8139 7.49219 19.8156C7.49219 19.8173 7.49219 19.8189 7.49219 19.8206C7.49219 19.8223 7.49219 19.8239 7.49219 19.8256C7.49219 19.8272 7.49219 19.8289 7.49219 19.8305C7.49219 19.8322 7.49219 19.8338 7.49219 19.8355C7.49219 19.8371 7.49219 19.8388 7.49219 19.8404C7.49219 19.8421 7.49219 19.8437 7.49219 19.8453C7.49219 19.847 7.49219 19.8486 7.49219 19.8502C7.49219 19.8519 7.49219 19.8535 7.49219 19.8551C7.49219 19.8568 7.49219 19.8584 7.49219 19.86C7.49219 19.8616 7.49219 19.8632 7.49219 19.8649C7.49219 19.8665 7.49219 19.8681 7.49219 19.8697C7.49219 19.8713 7.49219 19.8729 7.49219 19.8745C7.49219 19.8761 7.49219 19.8777 7.49219 19.8793C7.49219 19.8809 7.49219 19.8825 7.49219 19.8841C7.49219 19.8857 7.49219 19.8873 7.49219 19.8889C7.49219 19.8905 7.49219 19.8921 7.49219 19.8937C7.49219 19.8953 7.49219 19.8969 7.49219 19.8984C7.49219 19.9 7.49219 19.9016 7.49219 19.9032C7.49219 19.9048 7.49219 19.9063 7.49219 19.9079C7.49219 19.9095 7.49219 19.911 7.49219 19.9126C7.49219 19.9142 7.49219 19.9157 7.49219 19.9173C7.49219 19.9188 7.49219 19.9204 7.49219 19.922C7.49219 19.9235 7.49219 19.9251 7.49219 19.9266C7.49219 19.9282 7.49219 19.9297 7.49219 19.9313C7.49219 19.9328 7.49219 19.9343 7.49219 19.9359C7.49219 19.9374 7.49219 19.9389 7.49219 19.9405C7.49219 19.942 7.49219 19.9435 7.49219 19.9451C7.49219 19.9466 7.49219 19.9481 7.49219 19.9496C7.49219 19.9512 7.49219 19.9527 7.49219 19.9542C7.49219 19.9557 7.49219 19.9572 7.49219 19.9587C7.49219 19.9603 7.49219 19.9618 7.49219 19.9633C7.49219 19.9648 7.49219 19.9663 7.49219 19.9678C7.49219 19.9693 7.49219 19.9708 7.49219 19.9723C7.49219 19.9738 7.49219 19.9752 7.49219 19.9767C7.49219 19.9782 7.49219 19.9797 7.49219 19.9812C7.49219 19.9827 7.49219 19.9842 7.49219 19.9856C7.49219 19.9871 7.49219 19.9886 7.49219 19.99C7.49219 19.9915 7.49219 19.993 7.49219 19.9945C7.49219 19.9959 7.49219 19.9974 7.49219 19.9988C7.49219 20.0003 7.49219 20.0018 7.49219 20.0032C7.49219 20.0047 7.49219 20.0061 7.49219 20.0076C7.49219 20.009 7.49219 20.0105 7.49219 20.0119C7.49219 20.0133 7.49219 20.0148 7.49219 20.0162C7.49219 20.0176 7.49219 20.0191 7.49219 20.0205C7.49219 20.0219 7.49219 20.0234 7.49219 20.0248C7.49219 20.0262 7.49219 20.0276 7.49219 20.0291C7.49219 20.0305 7.49219 20.0319 7.49219 20.0333C7.49219 20.0347 7.49219 20.0361 7.49219 20.0375C7.49219 20.0389 7.49219 20.0403 7.49219 20.0417C7.49219 20.0431 7.49219 20.0445 7.49219 20.0459C7.49219 20.0473 7.49219 20.0487 7.49219 20.0501C7.49219 20.0515 7.49219 20.0529 7.49219 20.0543C7.49219 20.0556 7.49219 20.057 7.49219 20.0584C7.49219 20.0598 7.49219 20.0611 7.49219 20.0625C7.49219 20.0639 7.49219 20.0652 7.49219 20.0666C7.49219 20.068 7.49219 20.0693 7.49219 20.0707C7.49219 20.0721 7.49219 20.0734 7.49219 20.0748C7.49219 20.0761 7.49219 20.0775 7.49219 20.0788C7.49219 20.0801 7.49219 20.0815 7.49219 20.0828C7.49219 20.0842 7.49219 20.0855 7.49219 20.0868C7.49219 20.0882 7.49219 20.0895 7.49219 20.0908C7.49219 20.0921 7.49219 20.0935 7.49219 20.0948C7.49219 20.0961 7.49219 20.0974 7.49219 20.0987C7.49219 20.1 7.49219 20.1014 7.49219 20.1027C7.49219 20.104 7.49219 20.1053 7.49219 20.1066C7.49219 20.1079 7.49219 20.1092 7.49219 20.1105C7.49219 20.1117 7.49219 20.113 7.49219 20.1143C7.49219 20.1156 7.49219 20.1169 7.49219 20.1182C7.49219 20.1195 7.49219 20.1207 7.49219 20.122C7.49219 20.1233 7.49219 20.1246 7.49219 20.1258C7.49219 20.1271 7.49219 20.1284 7.49219 20.1296C7.49219 20.1309 7.49219 20.1321 7.49219 20.1334C7.49219 20.1346 7.49219 20.1359 7.49219 20.1371C7.49219 20.1384 7.49219 20.1396 7.49219 20.1409C7.49219 20.1421 7.49219 20.1433 7.49219 20.1446C7.49219 20.1458 7.49219 20.147 7.49219 20.1483C7.49219 20.1495 7.49219 20.1507 7.49219 20.1519C7.49219 20.1532 7.49219 20.1544 7.49219 20.1556C7.49219 20.1568 7.49219 20.158 7.49219 20.1592C7.49219 20.1604 7.49219 20.1616 7.49219 20.1628C7.49219 20.164 7.49219 20.1652 7.49219 20.1664C7.49219 20.1676 7.49219 20.1688 7.49219 20.17C7.49219 20.1712 7.49219 20.1724 7.49219 20.1735C7.49219 20.1747 7.49219 20.1759 7.49219 20.1771C7.49219 20.1782 7.49219 20.1794 7.49219 20.1806C7.49219 20.1817 7.49219 20.1829 7.49219 20.1841C7.49219 20.1852 7.49219 20.1864 7.49219 20.1875C7.49219 20.1887 7.49219 20.1898 7.49219 20.191C7.49219 20.1921 7.49219 20.1933 7.49219 20.1944C7.49219 20.1955 7.49219 20.1967 7.49219 20.1978C7.49219 20.1989 7.49219 20.2 7.49219 20.2012C7.49219 20.2023 7.49219 20.2034 7.49219 20.2045C7.49219 20.2056 7.49219 20.2068 7.49219 20.2079C7.49219 20.209 7.49219 20.2101 7.49219 20.2112C7.49219 20.2123 7.49219 20.2134 7.49219 20.2145C7.49219 20.2156 7.49219 20.2167 7.49219 20.2177C7.49219 20.2188 7.49219 20.2199 7.49219 20.221C7.49219 20.2221 7.49219 20.2232 7.49219 20.2242C7.49219 20.2253 7.49219 20.2264 7.49219 20.2274C7.49219 20.2285 7.49219 20.2296 7.49219 20.2306C7.49219 20.2317 7.49219 20.2327 7.49219 20.2338C7.49219 20.2348 7.49219 20.2359 7.49219 20.2369C7.49219 20.238 7.49219 20.239 7.49219 20.24C7.49219 20.2411 7.49219 20.2421 7.49219 20.2431C7.49219 20.2442 7.49219 20.2452 7.49219 20.2462C7.49219 20.2472 7.49219 20.2482 7.49219 20.2493C7.49219 20.2503 7.49219 20.2513 7.49219 20.2523C7.49219 20.2533 7.49219 20.2543 7.49219 20.2553C7.49219 20.2563 7.49219 20.2573 7.49219 20.2583C7.49219 20.2593 7.49219 20.2602 7.49219 20.2612C7.49219 20.2622 7.49219 20.2632 7.49219 20.2642C7.49219 20.2651 7.49219 20.2661 7.49219 20.2671C7.49219 20.268 7.49219 20.269 7.49219 20.27C7.49219 20.2709 7.49219 20.2719 7.49219 20.2728C7.49219 20.2738 7.49219 20.2747 7.49219 20.2757C7.49219 20.2766 7.49219 20.2776 7.49219 20.2785C7.49219 20.2794 7.49219 20.2804 7.49219 20.2813C7.49219 20.2822 7.49219 20.2832 7.49219 20.2841C7.49219 20.285 7.49219 20.2859 7.49219 20.2868C7.49219 20.2877 7.49219 20.2887 7.49219 20.2896C7.49219 20.2905 7.49219 20.2914 7.49219 20.2923C7.49219 20.2932 7.49219 20.2941 7.49219 20.2949C7.49219 20.2958 7.49219 20.2967 7.49219 20.2976C7.49219 20.2985 7.49219 20.2994 7.49219 20.3002C7.49219 20.3011 7.49219 20.302 7.49219 20.3028C7.49219 20.3037 7.49219 20.3046 7.49219 20.3054C7.49219 20.3063 7.49219 20.3071 7.49219 20.308C7.49219 20.3088 7.49219 20.3097 7.49219 20.3105C7.49219 20.3114 7.49219 20.3122 7.49219 20.313C7.49219 20.3139 7.49219 20.3147 7.49219 20.3155C7.49219 20.3164 7.49219 20.3172 7.49219 20.318C7.49219 20.3188 7.49219 20.3196 7.49219 20.3204C7.49219 20.3212 7.49219 20.322 7.49219 20.3228C7.49219 20.3236 7.49219 20.3244 7.49219 20.3252C7.49219 20.326 7.49219 20.3268 7.49219 20.3276C7.49219 20.3284 7.49219 20.3292 7.49219 20.3299C7.49219 20.3307 7.49219 20.3315 7.49219 20.3323C7.49219 20.333 7.49219 20.3338 7.49219 20.3345C7.49219 20.3353 7.49219 20.3361 7.49219 20.3368C7.49219 20.3376 7.49219 20.3383 7.49219 20.3391C7.49219 20.3398 7.49219 20.3405 7.49219 20.3413C7.49219 20.342 7.49219 20.3427 7.49219 20.3435C7.49219 20.3442 7.49219 20.3449 7.49219 20.3456C7.49219 20.3463 7.49219 20.347 7.49219 20.3478C7.49219 20.3485 7.49219 20.3492 7.49219 20.3499C7.49219 20.3506 7.49219 20.3513 7.49219 20.352C7.49219 20.3527 7.49219 20.3533 7.49219 20.354C7.49219 20.3547 7.49219 20.3554 7.49219 20.3561C7.49219 20.3567 7.49219 20.3574 7.49219 20.3581C7.49219 20.3587 7.49219 20.3594 7.49219 20.3601C7.49219 20.3607 7.49219 20.3614 7.49219 20.362C7.49219 20.3627 7.49219 20.3633 7.49219 20.364C7.49219 20.3646 7.49219 20.3652 7.49219 20.3659C7.49219 20.3665 7.49219 20.3671 7.49219 20.3677C7.49219 20.3684 7.49219 20.369 7.49219 20.3696C7.49219 20.3702 7.49219 20.3708 7.49219 20.3714C7.49219 20.372 7.49219 20.3726 7.49219 20.3732C7.49219 20.3738 7.49219 20.3744 7.49219 20.375H8.49219ZM7.99219 17.7109C7.88742 17.222 7.88757 17.222 7.8877 17.222C7.88773 17.222 7.88786 17.2219 7.88792 17.2219C7.88804 17.2219 7.88811 17.2219 7.88814 17.2219C7.8882 17.2219 7.88809 17.2219 7.8878 17.222C7.88721 17.2221 7.88593 17.2223 7.88397 17.2227C7.88004 17.2235 7.8734 17.2249 7.86421 17.2266C7.84583 17.2301 7.81729 17.2354 7.77989 17.2416C7.70497 17.254 7.59517 17.2702 7.4607 17.2841C7.1896 17.3121 6.82873 17.3299 6.45588 17.2938C5.68178 17.2189 5.0395 16.9397 4.81419 16.2638L3.8655 16.58C4.28472 17.8376 5.46861 18.203 6.35955 18.2892C6.81922 18.3337 7.25059 18.3112 7.5636 18.2788C7.72117 18.2625 7.85139 18.2434 7.94348 18.2281C7.98959 18.2205 8.0263 18.2138 8.05229 18.2088C8.06529 18.2063 8.07562 18.2042 8.08311 18.2027C8.08686 18.202 8.0899 18.2013 8.09221 18.2008C8.09337 18.2006 8.09435 18.2004 8.09514 18.2002C8.09553 18.2001 8.09588 18.2001 8.09618 18.2C8.09633 18.2 8.09653 18.1999 8.0966 18.1999C8.09678 18.1999 8.09695 18.1998 7.99219 17.7109ZM4.33984 16.4219C4.80734 16.2445 4.80731 16.2445 4.80727 16.2444C4.80725 16.2443 4.80721 16.2442 4.80718 16.2441C4.80712 16.244 4.80705 16.2438 4.80697 16.2436C4.80682 16.2432 4.80664 16.2427 4.80643 16.2422C4.80601 16.2411 4.80547 16.2397 4.80481 16.238C4.8035 16.2346 4.80172 16.23 4.79948 16.2243C4.795 16.213 4.78867 16.1971 4.78055 16.1774C4.76434 16.138 4.74089 16.0828 4.71069 16.0161C4.65061 15.8835 4.56224 15.7022 4.44923 15.5089C4.24127 15.1532 3.8829 14.6369 3.3801 14.4169L2.97928 15.3331C3.16398 15.4139 3.38569 15.6711 3.58593 16.0136C3.67702 16.1694 3.74978 16.3184 3.79981 16.4288C3.82466 16.4837 3.84351 16.5281 3.85583 16.5581C3.86198 16.573 3.86648 16.5843 3.86926 16.5913C3.87065 16.5948 3.8716 16.5973 3.87212 16.5986C3.87238 16.5993 3.87253 16.5997 3.87257 16.5998C3.87259 16.5998 3.87258 16.5998 3.87254 16.5997C3.87252 16.5997 3.8725 16.5996 3.87246 16.5995C3.87245 16.5995 3.87242 16.5994 3.87241 16.5994C3.87238 16.5993 3.87234 16.5992 4.33984 16.4219ZM3.17969 14.875C3.46522 14.4645 3.46531 14.4646 3.4654 14.4647C3.46543 14.4647 3.46552 14.4648 3.46557 14.4648C3.46567 14.4649 3.46576 14.4649 3.46583 14.465C3.46598 14.4651 3.46607 14.4651 3.46611 14.4652C3.46618 14.4652 3.46604 14.4651 3.46568 14.4649C3.46498 14.4644 3.46345 14.4633 3.46119 14.4617C3.45665 14.4584 3.44924 14.453 3.43967 14.4458C3.42029 14.4312 3.39318 14.4102 3.36345 14.3851C3.33337 14.3598 3.30337 14.3327 3.27714 14.3061C3.24976 14.2784 3.23372 14.2585 3.22647 14.248C3.22323 14.2433 3.225 14.2451 3.22887 14.2533C3.23253 14.261 3.24141 14.2814 3.24731 14.3129C3.25338 14.3453 3.25699 14.3935 3.24481 14.4509C3.23213 14.5105 3.20536 14.5654 3.16894 14.6102C3.13413 14.6531 3.09856 14.677 3.07729 14.6887C3.05666 14.7001 3.04556 14.7023 3.05158 14.7007C3.06628 14.6968 3.11676 14.6875 3.22266 14.6875V13.6875C3.07074 13.6875 2.92651 13.6997 2.79787 13.7334C2.67463 13.7657 2.51303 13.8317 2.39283 13.9796C2.25665 14.1472 2.23533 14.3419 2.26444 14.4972C2.2902 14.6346 2.35409 14.7442 2.40243 14.8145C2.50056 14.9573 2.63379 15.078 2.71931 15.15C2.76612 15.1894 2.80816 15.2221 2.83881 15.2451C2.85424 15.2567 2.86706 15.2661 2.8765 15.2729C2.88122 15.2763 2.88512 15.2791 2.88809 15.2812C2.88957 15.2822 2.89083 15.2831 2.89184 15.2838C2.89235 15.2842 2.8928 15.2845 2.89318 15.2848C2.89338 15.2849 2.89355 15.285 2.89372 15.2851C2.8938 15.2852 2.89391 15.2853 2.89395 15.2853C2.89405 15.2854 2.89416 15.2855 3.17969 14.875ZM3.22266 14.1875C3.18278 14.6859 3.18257 14.6859 3.18235 14.6859C3.18229 14.6859 3.18208 14.6859 3.18195 14.6858C3.18168 14.6858 3.18143 14.6858 3.1812 14.6858C3.18073 14.6857 3.18033 14.6857 3.17999 14.6857C3.1793 14.6856 3.17886 14.6856 3.17865 14.6856C3.17824 14.6855 3.17878 14.6856 3.18022 14.6857C3.18311 14.686 3.18958 14.6868 3.19928 14.6882C3.21872 14.691 3.25079 14.6962 3.2927 14.7054C3.377 14.7239 3.49796 14.7577 3.63455 14.8175C3.90645 14.9364 4.23151 15.1537 4.46655 15.5566L5.33033 15.0528C4.96381 14.4244 4.45097 14.0831 4.03537 13.9013C3.82821 13.8107 3.64302 13.7585 3.50711 13.7287C3.4389 13.7137 3.38235 13.7042 3.3407 13.6982C3.31985 13.6953 3.30265 13.6932 3.28951 13.6917C3.28294 13.691 3.27737 13.6904 3.27286 13.69C3.2706 13.6898 3.26861 13.6896 3.26689 13.6895C3.26603 13.6894 3.26523 13.6893 3.2645 13.6893C3.26414 13.6892 3.26379 13.6892 3.26347 13.6892C3.2633 13.6892 3.26307 13.6891 3.26298 13.6891C3.26275 13.6891 3.26253 13.6891 3.22266 14.1875ZM4.46295 15.5503C5.01602 16.5308 5.78451 16.9262 6.53391 16.995C7.2464 17.0603 7.88902 16.827 8.2466 16.6601L7.82371 15.7539C7.53676 15.8878 7.08368 16.0412 6.62527 15.9992C6.20377 15.9605 5.72617 15.7544 5.33393 15.059L4.46295 15.5503ZM8.53129 16.269C8.60511 15.6785 8.8176 15.3274 9.05191 15.1224L8.3934 14.3698C7.94021 14.7664 7.63708 15.3605 7.53902 16.145L8.53129 16.269ZM8.77592 14.2489C7.54802 14.1174 6.46823 13.971 5.67769 13.4223C4.9411 12.911 4.36719 11.9768 4.36719 10.0195H3.36719C3.36719 12.1872 4.01788 13.4875 5.10747 14.2438C6.1431 14.9626 7.49104 15.117 8.66939 15.2432L8.77592 14.2489ZM4.36719 10.0195C4.36719 9.46818 4.4455 9.10081 4.58191 8.79389C4.72151 8.47977 4.93706 8.19352 5.27214 7.81656L4.52473 7.15219C4.17231 7.54866 3.87224 7.92843 3.66809 8.38775C3.46075 8.85427 3.36719 9.36776 3.36719 10.0195H4.36719ZM5.35801 7.28742C5.26913 7.08003 4.9497 6.10291 5.49158 4.7482L4.56311 4.3768C3.90186 6.02991 4.26993 7.28716 4.43887 7.68133L5.35801 7.28742ZM5.17102 5.04141C5.23657 5.02175 5.40731 5.02213 5.70781 5.11342C5.98651 5.19809 6.30103 5.33682 6.60541 5.49159C6.90716 5.64502 7.18534 5.8072 7.38895 5.9317C7.4904 5.99373 7.57249 6.0459 7.62876 6.08224C7.65688 6.1004 7.67849 6.11458 7.69279 6.12402C7.69994 6.12874 7.70526 6.13228 7.70865 6.13454C7.71034 6.13567 7.71155 6.13648 7.71226 6.13695C7.71261 6.13719 7.71284 6.13735 7.71295 6.13742C7.713 6.13745 7.71302 6.13747 7.71301 6.13746C7.71301 6.13746 7.71298 6.13743 7.71297 6.13743C7.71293 6.13741 7.71289 6.13737 7.99219 5.72266C8.27149 5.30794 8.27142 5.3079 8.27135 5.30785C8.27132 5.30782 8.27124 5.30777 8.27117 5.30772C8.27103 5.30763 8.27086 5.30752 8.27066 5.30738C8.27025 5.30711 8.26972 5.30675 8.26906 5.30631C8.26774 5.30542 8.26591 5.3042 8.2636 5.30266C8.25896 5.29956 8.25235 5.29517 8.24387 5.28957C8.22691 5.27837 8.20245 5.26233 8.17132 5.24222C8.10909 5.20203 8.01998 5.14543 7.91061 5.07855C7.69259 4.94524 7.3907 4.76904 7.05865 4.60021C6.72924 4.43271 6.35626 4.26529 5.99849 4.1566C5.66252 4.05453 5.2478 3.97435 4.88367 4.08359L5.17102 5.04141ZM8.13586 6.20157C8.93343 5.9623 9.78364 5.87891 10.6562 5.87891V4.87891C9.72417 4.87891 8.7697 4.96739 7.84851 5.24374L8.13586 6.20157ZM10.6562 5.87891C11.573 5.87891 12.4228 5.96252 13.2196 6.20157L13.507 5.24374C12.585 4.96716 11.6302 4.87891 10.6562 4.87891V5.87891ZM13.3633 5.72266C13.6523 6.13067 13.6522 6.13071 13.6522 6.13074C13.6522 6.13074 13.6522 6.13077 13.6521 6.13077C13.6521 6.13079 13.6521 6.13078 13.6522 6.13075C13.6523 6.13069 13.6525 6.13054 13.6528 6.1303C13.6535 6.12984 13.6546 6.12903 13.6562 6.12789C13.6595 6.12562 13.6646 6.12203 13.6716 6.11722C13.6854 6.1076 13.7065 6.09312 13.7339 6.07455C13.7888 6.0374 13.8691 5.98405 13.9684 5.92069C14.168 5.79347 14.441 5.62825 14.7385 5.47315C15.0387 5.31659 15.3492 5.17818 15.6259 5.09637C15.9214 5.00903 16.095 5.01183 16.17 5.03684L16.4862 4.08816C16.1101 3.96278 15.6875 4.03541 15.3425 4.13739C14.9787 4.24491 14.6043 4.41534 14.2762 4.58643C13.9453 4.75895 13.6462 4.94017 13.4309 5.07748C13.3228 5.14638 13.2349 5.20481 13.1734 5.24638C13.1427 5.26718 13.1185 5.2838 13.1018 5.29543C13.0934 5.30125 13.0868 5.30582 13.0822 5.30906C13.0799 5.31068 13.0781 5.31196 13.0768 5.31289C13.0761 5.31336 13.0756 5.31374 13.0751 5.31403C13.0749 5.31418 13.0748 5.3143 13.0746 5.31441C13.0745 5.31446 13.0745 5.31452 13.0744 5.31454C13.0743 5.3146 13.0743 5.31464 13.3633 5.72266ZM15.8639 4.7482C16.3994 6.08686 16.0577 7.06209 15.9763 7.34701L16.9378 7.62174C17.0283 7.3051 17.46 6.04595 16.7924 4.3768L15.8639 4.7482ZM16.0833 7.81656C16.4279 8.20419 16.6657 8.49333 16.8262 8.81443C16.9799 9.12179 17.0742 9.48367 17.0742 10.0195H18.0742C18.0742 9.35227 17.9537 8.83329 17.7207 8.36721C17.4945 7.91488 17.1737 7.538 16.8307 7.15219L16.0833 7.81656ZM17.0742 10.0195C17.0742 11.9703 16.4832 12.9052 15.7252 13.4192C14.9115 13.9711 13.8073 14.1174 12.5795 14.2489L12.6861 15.2432C13.8646 15.117 15.2311 14.9625 16.2865 14.2468C17.3976 13.4933 18.0742 12.1938 18.0742 10.0195H17.0742ZM12.3006 15.1198C12.5603 15.3506 12.8633 15.8476 12.8633 16.7656H13.8633C13.8633 15.6211 13.4787 14.829 12.965 14.3724L12.3006 15.1198ZM12.8633 16.7656C12.8633 17.4704 12.8526 18.2728 12.8419 18.9437C12.8312 19.6086 12.8203 20.1549 12.8203 20.332H13.8203C13.8203 20.1655 13.8309 19.6375 13.8417 18.9597C13.8525 18.2878 13.8633 17.4788 13.8633 16.7656H12.8633ZM12.8203 20.332C12.8203 20.5896 12.9113 20.9038 13.1695 21.1283C13.4438 21.3668 13.8142 21.4253 14.2062 21.3349L13.9813 20.3605C13.8952 20.3803 13.8484 20.3759 13.8308 20.3726C13.8159 20.3698 13.8184 20.3674 13.8256 20.3737C13.8312 20.3785 13.8302 20.3804 13.8271 20.3727C13.8236 20.3639 13.8203 20.3493 13.8203 20.332H12.8203ZM14.2504 21.3225C18.7607 19.8341 21.8125 15.5544 21.8125 10.5781H20.8125C20.8125 15.1409 18.0206 19.0253 13.9371 20.3728L14.2504 21.3225ZM21.8125 10.5781C21.8125 4.35273 16.7132 -0.40625 10.4844 -0.40625V0.59375C16.2009 0.59375 20.8125 4.94415 20.8125 10.5781H21.8125ZM3.94436 14.4708C3.62527 14.6303 3.60751 14.9494 3.62269 15.086C3.63782 15.2222 3.69043 15.3387 3.72076 15.3994L4.61518 14.9522C4.60254 14.9269 4.61218 14.936 4.61657 14.9755C4.61905 14.9979 4.62349 15.0617 4.59317 15.1416C4.55761 15.2354 4.48633 15.3178 4.39158 15.3652L3.94436 14.4708ZM3.94436 15.623C3.97591 15.6388 4.06947 15.688 4.17561 15.7146C4.29998 15.7457 4.47174 15.7548 4.64939 15.666L4.20217 14.7715C4.24276 14.7512 4.28699 14.7399 4.33014 14.7372C4.3711 14.7346 4.40204 14.7404 4.41814 14.7444C4.4333 14.7482 4.4397 14.7516 4.43283 14.7486C4.42511 14.7452 4.41518 14.7404 4.39158 14.7286L3.94436 15.623ZM4.77933 15.5723C4.95522 15.3964 4.96267 15.1685 4.94958 15.0507C4.93306 14.902 4.86806 14.7391 4.73637 14.6074L4.02926 15.3145C3.9835 15.2687 3.96148 15.2132 3.95569 15.1612C3.95278 15.1349 3.95269 15.0988 3.96324 15.0551C3.97257 15.0164 3.9984 14.939 4.07223 14.8652L4.77933 15.5723ZM4.60642 14.5137C4.57678 14.4989 4.4884 14.4527 4.39664 14.4265C4.32548 14.4061 4.04221 14.3366 3.81442 14.5644L4.52152 15.2715C4.43481 15.3582 4.33085 15.3917 4.2509 15.3986C4.18184 15.4046 4.13343 15.3913 4.12192 15.388C4.10737 15.3838 4.10257 15.3809 4.11324 15.3857C4.12345 15.3904 4.13592 15.3965 4.15921 15.4082L4.60642 14.5137ZM3.2481 14.3506C3.17869 14.4894 3.12868 14.7127 3.26119 14.9335C3.35815 15.0951 3.51112 15.17 3.55764 15.1933L4.00486 14.2989C3.99557 14.2942 4.00533 14.2983 4.02272 14.3111C4.03997 14.3239 4.08194 14.3578 4.11869 14.419C4.15979 14.4875 4.18142 14.5689 4.17813 14.6513C4.17515 14.7257 4.15289 14.7771 4.14253 14.7978L3.2481 14.3506ZM3.55764 15.1933C3.64962 15.2393 3.79907 15.2931 3.9755 15.2679C4.18434 15.2381 4.35253 15.1083 4.44331 14.9267L3.54888 14.4795C3.56848 14.4403 3.60309 14.3916 3.65929 14.35C3.71609 14.3081 3.77805 14.286 3.83407 14.278C3.93531 14.2635 3.99882 14.2959 4.00486 14.2989L3.55764 15.1933ZM4.49609 14.7031C4.49609 14.5023 4.3934 14.3611 4.31742 14.2851C4.24246 14.2102 4.15729 14.1603 4.09079 14.127L3.64358 15.0214C3.66302 15.0312 3.6423 15.0242 3.61031 14.9922C3.5773 14.9592 3.49609 14.861 3.49609 14.7031H4.49609ZM4.09079 14.127C4.03393 14.0986 3.91411 14.042 3.76514 14.042C3.5736 14.042 3.4316 14.1308 3.34176 14.2207L4.04887 14.9278C4.03076 14.9459 3.99533 14.9769 3.94111 15.0025C3.88338 15.0296 3.82245 15.042 3.76514 15.042C3.66987 15.042 3.61451 15.0069 3.64358 15.0214L4.09079 14.127ZM4.71676 15.7675C4.53485 15.9494 4.52693 16.1902 4.56073 16.3424C4.60126 16.5247 4.71433 16.6852 4.8789 16.7949L5.4336 15.9629C5.46926 15.9867 5.51788 16.0397 5.53692 16.1254C5.54573 16.1651 5.54846 16.2139 5.53712 16.2687C5.52665 16.3193 5.4985 16.4 5.42387 16.4746L4.71676 15.7675ZM4.8027 16.7325C4.89502 16.8248 5.0297 16.9167 5.1928 16.9529C5.27691 16.9716 5.39867 16.9817 5.53073 16.9362C5.67593 16.8861 5.793 16.782 5.86128 16.6455L4.96685 16.1983C5.01364 16.1047 5.09849 16.0275 5.20474 15.9908C5.29786 15.9587 5.37397 15.9688 5.40973 15.9768C5.47616 15.9915 5.50342 16.019 5.5098 16.0254L4.8027 16.7325ZM5.76762 16.7754C5.9435 16.5995 5.95095 16.3717 5.93786 16.2539C5.92134 16.1052 5.85634 15.9422 5.72465 15.8105L5.01754 16.5176C4.97178 16.4719 4.94976 16.4163 4.94398 16.3643C4.94106 16.338 4.94098 16.3019 4.95152 16.2582C4.96085 16.2196 4.98668 16.1422 5.06051 16.0683L5.76762 16.7754ZM5.72465 15.8105C5.62923 15.7151 5.49082 15.6222 5.31876 15.5878C5.12924 15.5499 4.89687 15.5874 4.71676 15.7675L5.42387 16.4746C5.38389 16.5146 5.33037 16.5468 5.26873 16.563C5.20961 16.5786 5.15838 16.5756 5.12264 16.5684C5.05801 16.5555 5.02702 16.5271 5.01754 16.5176L5.72465 15.8105ZM4.37405 15.0293C4.12845 15.1521 4.0332 15.3919 4.0332 15.5894C4.0332 15.7812 4.1154 15.9592 4.2441 16.0879L4.95121 15.3808C4.99398 15.4236 5.0332 15.4941 5.0332 15.5894C5.0332 15.6901 4.98092 15.8439 4.82126 15.9238L4.37405 15.0293ZM4.2441 16.0879C4.30999 16.1538 4.41242 16.2419 4.551 16.2938C4.70937 16.3532 4.8983 16.3579 5.07908 16.2675L4.63186 15.3731C4.67208 15.353 4.72128 15.339 4.7754 15.3373C4.82828 15.3357 4.87179 15.3461 4.90212 15.3575C4.95477 15.3773 4.97126 15.4009 4.95121 15.3808L4.2441 16.0879ZM5.20902 16.1739C5.30332 16.0796 5.34347 15.9728 5.36164 15.907C5.38147 15.8351 5.3877 15.7661 5.3877 15.7075C5.3877 15.595 5.36443 15.4624 5.30268 15.3389L4.40826 15.7861C4.38947 15.7485 4.3877 15.7233 4.3877 15.7075C4.3877 15.6973 4.38855 15.674 4.39764 15.641C4.40507 15.6141 4.4291 15.5396 4.50192 15.4668L5.20902 16.1739ZM5.20902 15.2089C5.14314 15.1431 5.04071 15.055 4.90212 15.003C4.74376 14.9436 4.55483 14.939 4.37405 15.0293L4.82126 15.9238C4.78104 15.9439 4.73185 15.9578 4.67773 15.9595C4.62485 15.9612 4.58133 15.9507 4.551 15.9394C4.49836 15.9196 4.48186 15.896 4.50192 15.9161L5.20902 15.2089Z" fill="black"/>
</svg>
