<svg width="20" height="20" viewBox="0 0 20 20" fill="none" xmlns="http://www.w3.org/2000/svg">
<path d="M9.625 7.47266C7.82031 7.47266 6.74609 9.40625 7.60547 10.9102C8.50781 12.457 10.6992 12.457 11.6016 10.9102C11.7734 10.5664 11.9023 10.1797 11.9023 9.75C11.9023 8.50391 10.8711 7.47266 9.625 7.47266ZM14.9531 5.71094C14.7383 5.10938 14.2656 4.63672 13.6641 4.42188C12.7617 4.03516 10.6133 4.12109 9.625 4.12109C8.59375 4.12109 6.44531 4.03516 5.54297 4.42188C4.94141 4.63672 4.46875 5.10938 4.25391 5.71094C3.91016 6.61328 3.95312 8.76172 3.95312 9.75C3.95312 10.7812 3.91016 12.9297 4.25391 13.832C4.46875 14.4336 4.94141 14.9062 5.54297 15.1211C6.44531 15.5078 8.59375 15.4219 9.625 15.4219C10.6133 15.4219 12.7617 15.5078 13.6641 15.1211C14.2656 14.9062 14.7383 14.4336 14.9531 13.832C15.3398 12.9297 15.2539 10.7812 15.2539 9.75C15.2539 8.76172 15.3398 6.61328 14.9531 5.71094ZM9.625 13.2734C6.875 13.2734 5.19922 10.3516 6.53125 7.98828C7.90625 5.66797 11.3008 5.66797 12.6758 7.98828C12.9766 8.54688 13.1484 9.14844 13.1484 9.75C13.1484 11.7266 11.5586 13.3164 9.625 13.2734ZM13.2773 6.91406C12.6328 6.91406 12.2461 6.22656 12.5469 5.66797C12.8906 5.15234 13.6641 5.15234 13.9648 5.66797C14.0508 5.79688 14.0938 5.96875 14.0938 6.09766C14.0938 6.57031 13.707 6.91406 13.2773 6.91406ZM17.1875 0.125H2.0625C0.902344 0.125 0 1.07031 0 2.1875V17.3125C0 18.4727 0.902344 19.375 2.0625 19.375H17.1875C18.3047 19.375 19.25 18.4727 19.25 17.3125V2.1875C19.25 1.07031 18.3047 0.125 17.1875 0.125ZM16.4141 12.5859C16.3711 13.7031 16.1133 14.6914 15.3398 15.4648C14.5234 16.2812 13.5352 16.5391 12.4609 16.582C11.3008 16.668 7.90625 16.668 6.78906 16.582C5.67188 16.5391 4.68359 16.2812 3.91016 15.4648C3.09375 14.6914 2.83594 13.7031 2.79297 12.5859C2.70703 11.4688 2.70703 8.07422 2.79297 6.91406C2.83594 5.83984 3.09375 4.85156 3.91016 4.03516C4.68359 3.26172 5.67188 3.00391 6.78906 2.96094C7.90625 2.875 11.3008 2.875 12.4609 2.96094C13.5352 3.00391 14.5234 3.26172 15.3398 4.07812C16.1133 4.85156 16.3711 5.83984 16.4141 6.95703C16.5 8.07422 16.5 11.4688 16.4141 12.5859Z" fill="white"/>
<path d="M7.60547 10.9102L7.17133 11.1582L7.17358 11.1621L7.60547 10.9102ZM11.6016 10.9102L12.0335 11.1621L12.0416 11.1482L12.0488 11.1338L11.6016 10.9102ZM14.9531 5.71094L14.4823 5.87911L14.4875 5.89368L14.4936 5.9079L14.9531 5.71094ZM13.6641 4.42188L13.4671 4.88145L13.4813 4.88754L13.4959 4.89275L13.6641 4.42188ZM5.54297 4.42188L5.71114 4.89275L5.72571 4.88754L5.73993 4.88145L5.54297 4.42188ZM4.25391 5.71094L4.72125 5.88897L4.72478 5.87911L4.25391 5.71094ZM4.25391 13.832L4.72488 13.6638L4.72115 13.654L4.25391 13.832ZM5.54297 15.1211L5.73993 14.6615L5.72571 14.6554L5.71114 14.6502L5.54297 15.1211ZM13.6641 15.1211L13.4959 14.6502L13.4813 14.6554L13.4671 14.6615L13.6641 15.1211ZM14.9531 13.832L14.4936 13.6351L14.4875 13.6493L14.4823 13.6639L14.9531 13.832ZM9.625 13.2734L9.63611 12.7734H9.625V13.2734ZM6.53125 7.98828L6.101 7.73332L6.09567 7.74277L6.53125 7.98828ZM12.6758 7.98828L13.116 7.75123L13.1112 7.7422L13.1059 7.73338L12.6758 7.98828ZM12.5469 5.66797L12.1308 5.39062L12.1178 5.4102L12.1066 5.43092L12.5469 5.66797ZM13.9648 5.66797L13.533 5.9199L13.5405 5.93285L13.5488 5.94532L13.9648 5.66797ZM16.4141 12.5859L15.9155 12.5476L15.9148 12.5571L15.9144 12.5667L16.4141 12.5859ZM12.4609 16.582L12.441 16.0824L12.4325 16.0828L12.424 16.0834L12.4609 16.582ZM6.78906 16.582L6.82741 16.0835L6.81786 16.0828L6.80828 16.0824L6.78906 16.582ZM3.91016 15.4648L4.27313 15.121L4.26384 15.1112L4.25403 15.1019L3.91016 15.4648ZM2.79297 12.5859L3.2926 12.5667L3.29223 12.5571L3.2915 12.5476L2.79297 12.5859ZM2.79297 6.91406L3.2916 6.951L3.29223 6.94253L3.29257 6.93405L2.79297 6.91406ZM6.78906 2.96094L6.80828 3.46057L6.81786 3.4602L6.82741 3.45946L6.78906 2.96094ZM12.4609 2.96094L12.424 3.45957L12.4325 3.4602L12.441 3.46054L12.4609 2.96094ZM16.4141 6.95703L15.9144 6.97625L15.9148 6.98582L15.9155 6.99538L16.4141 6.95703ZM9.625 6.97266C7.4321 6.97266 6.12364 9.32473 7.17135 11.1582L8.03959 10.6621C7.36855 9.48777 8.20852 7.97266 9.625 7.97266V6.97266ZM7.17358 11.1621C8.26886 13.0397 10.9382 13.0397 12.0335 11.1621L11.1697 10.6582C10.4603 11.8743 8.74676 11.8743 8.03736 10.6582L7.17358 11.1621ZM12.0488 11.1338C12.2424 10.7465 12.4023 10.2819 12.4023 9.75H11.4023C11.4023 10.0775 11.3045 10.3863 11.1543 10.6865L12.0488 11.1338ZM12.4023 9.75C12.4023 8.22776 11.1472 6.97266 9.625 6.97266V7.97266C10.595 7.97266 11.4023 8.78005 11.4023 9.75H12.4023ZM15.424 5.54277C15.1587 4.80003 14.575 4.21627 13.8322 3.951L13.4959 4.89275C13.9563 5.05717 14.3178 5.41872 14.4823 5.87911L15.424 5.54277ZM13.861 3.9623C13.3118 3.72692 12.4579 3.65329 11.6941 3.62677C10.9097 3.59953 10.0994 3.62109 9.625 3.62109V4.62109C10.1389 4.62109 10.8969 4.59969 11.6594 4.62616C12.4425 4.65335 13.114 4.73011 13.4671 4.88145L13.861 3.9623ZM9.625 3.62109C9.12892 3.62109 8.3081 3.59953 7.51841 3.62676C6.7493 3.65328 5.89533 3.72688 5.34601 3.9623L5.73993 4.88145C6.09295 4.73015 6.76437 4.65336 7.55288 4.62617C8.3208 4.59969 9.08983 4.62109 9.625 4.62109V3.62109ZM5.3748 3.951C4.63206 4.21627 4.0483 4.80003 3.78304 5.54277L4.72478 5.87911C4.8892 5.41872 5.25075 5.05717 5.71114 4.89275L5.3748 3.951ZM3.78666 5.53294C3.58181 6.07067 3.50693 6.91205 3.47504 7.67743C3.44225 8.46451 3.45312 9.26492 3.45312 9.75H4.45312C4.45312 9.2468 4.44252 8.47885 4.47418 7.71906C4.50674 6.93756 4.58225 6.25355 4.72115 5.88894L3.78666 5.53294ZM3.45312 9.75C3.45312 10.2566 3.44225 11.0677 3.47504 11.86C3.50693 12.6307 3.58178 13.4722 3.78666 14.01L4.72115 13.654C4.58228 13.2895 4.50674 12.6056 4.47418 11.8187C4.44252 11.0534 4.45312 10.2747 4.45312 9.75H3.45312ZM3.78304 14.0002C4.0483 14.7429 4.63206 15.3267 5.3748 15.592L5.71114 14.6502C5.25075 14.4858 4.8892 14.1242 4.72478 13.6639L3.78304 14.0002ZM5.34601 15.5807C5.89533 15.8161 6.7493 15.8897 7.51841 15.9162C8.3081 15.9434 9.12892 15.9219 9.625 15.9219V14.9219C9.08983 14.9219 8.3208 14.9433 7.55288 14.9168C6.76437 14.8896 6.09295 14.8128 5.73993 14.6615L5.34601 15.5807ZM9.625 15.9219C10.0994 15.9219 10.9097 15.9434 11.6941 15.9162C12.4579 15.8897 13.3118 15.8161 13.861 15.5807L13.4671 14.6615C13.114 14.8129 12.4425 14.8896 11.6594 14.9168C10.8969 14.9433 10.1389 14.9219 9.625 14.9219V15.9219ZM13.8322 15.592C14.575 15.3267 15.1587 14.7429 15.424 14.0002L14.4823 13.6639C14.3178 14.1242 13.9563 14.4858 13.4959 14.6502L13.8322 15.592ZM15.4127 14.029C15.6481 13.4797 15.7217 12.6257 15.7482 11.8566C15.7755 11.0669 15.7539 10.2461 15.7539 9.75H14.7539C14.7539 10.2852 14.7753 11.0542 14.7488 11.8221C14.7216 12.6106 14.6448 13.2821 14.4936 13.6351L15.4127 14.029ZM15.7539 9.75C15.7539 9.27563 15.7755 8.46527 15.7482 7.68089C15.7217 6.91706 15.6481 6.06321 15.4127 5.51398L14.4936 5.9079C14.6449 6.26101 14.7216 6.93255 14.7488 7.71559C14.7753 8.47809 14.7539 9.23609 14.7539 9.75H15.7539ZM9.625 12.7734C7.26068 12.7734 5.82115 10.2664 6.96683 8.23379L6.09567 7.74277C4.57729 10.4367 6.48932 13.7734 9.625 13.7734V12.7734ZM6.9614 8.24318C8.14274 6.24967 11.0643 6.24967 12.2456 8.24318L13.1059 7.73338C11.5373 5.08627 7.66976 5.08627 6.1011 7.73338L6.9614 8.24318ZM12.2355 8.22533C12.5036 8.72319 12.6484 9.24393 12.6484 9.75H13.6484C13.6484 9.05294 13.4495 8.37056 13.116 7.75123L12.2355 8.22533ZM12.6484 9.75C12.6484 11.4567 11.2787 12.8101 9.63611 12.7736L9.61389 13.7733C11.8384 13.8227 13.6484 11.9964 13.6484 9.75H12.6484ZM13.2773 6.41406C13.0299 6.41406 12.8567 6.14718 12.9871 5.90502L12.1066 5.43092C11.6355 6.30595 12.2357 7.41406 13.2773 7.41406V6.41406ZM12.9629 5.94532C13.035 5.8372 13.1521 5.78125 13.272 5.78125C13.391 5.78125 13.4831 5.83452 13.533 5.9199L14.3967 5.41603C13.8908 4.54876 12.6586 4.59903 12.1308 5.39062L12.9629 5.94532ZM13.5488 5.94532C13.5578 5.95876 13.5706 5.98456 13.5808 6.02017C13.591 6.05597 13.5938 6.08485 13.5938 6.09766H14.5938C14.5938 5.88126 14.5275 5.61052 14.3809 5.39062L13.5488 5.94532ZM13.5938 6.09766C13.5938 6.27719 13.4482 6.41406 13.2773 6.41406V7.41406C13.9659 7.41406 14.5938 6.86344 14.5938 6.09766H13.5938ZM17.1875 -0.375H2.0625V0.625H17.1875V-0.375ZM2.0625 -0.375C0.619443 -0.375 -0.5 0.800977 -0.5 2.1875H0.5C0.5 1.33965 1.18524 0.625 2.0625 0.625V-0.375ZM-0.5 2.1875V17.3125H0.5V2.1875H-0.5ZM-0.5 17.3125C-0.5 18.7488 0.626201 19.875 2.0625 19.875V18.875C1.17849 18.875 0.5 18.1965 0.5 17.3125H-0.5ZM2.0625 19.875H17.1875V18.875H2.0625V19.875ZM17.1875 19.875C18.574 19.875 19.75 18.7556 19.75 17.3125H18.75C18.75 18.1898 18.0354 18.875 17.1875 18.875V19.875ZM19.75 17.3125V2.1875H18.75V17.3125H19.75ZM19.75 2.1875C19.75 0.79417 18.5808 -0.375 17.1875 -0.375V0.625C18.0285 0.625 18.75 1.34645 18.75 2.1875H19.75ZM15.9144 12.5667C15.8739 13.6212 15.6342 14.4633 14.9863 15.1113L15.6934 15.8184C16.5923 14.9195 16.8683 13.785 16.9137 12.6052L15.9144 12.5667ZM14.9863 15.1113C14.2914 15.8061 13.445 16.0423 12.441 16.0824L12.4809 17.0816C13.6253 17.0359 14.7554 16.7564 15.6934 15.8184L14.9863 15.1113ZM12.424 16.0834C11.288 16.1675 7.91861 16.1674 6.82741 16.0835L6.75071 17.0806C7.89389 17.1685 11.3136 17.1684 12.4979 17.0807L12.424 16.0834ZM6.80828 16.0824C5.75521 16.0419 4.91955 15.8033 4.27313 15.121L3.54718 15.8087C4.44764 16.7592 5.58854 17.0362 6.76985 17.0817L6.80828 16.0824ZM4.25403 15.1019C3.5717 14.4555 3.3331 13.6198 3.2926 12.5667L2.29334 12.6052C2.33877 13.7865 2.6158 14.9274 3.56628 15.8278L4.25403 15.1019ZM3.2915 12.5476C3.20756 11.4564 3.20745 8.08705 3.2916 6.951L2.29433 6.87713C2.20661 8.06139 2.2065 11.4811 2.29444 12.6243L3.2915 12.5476ZM3.29257 6.93405C3.33273 5.93001 3.56886 5.08356 4.26371 4.38871L3.5566 3.6816C2.61864 4.61956 2.33914 5.74967 2.29337 6.89408L3.29257 6.93405ZM4.26371 4.38871C4.91167 3.74075 5.75377 3.50113 6.80828 3.46057L6.76985 2.46131C5.58998 2.50669 4.45552 2.78269 3.5566 3.6816L4.26371 4.38871ZM6.82741 3.45946C7.91861 3.37553 11.288 3.37542 12.424 3.45957L12.4979 2.4623C11.3136 2.37458 7.89389 2.37447 6.75071 2.46241L6.82741 3.45946ZM12.441 3.46054C13.445 3.5007 14.2914 3.73683 14.9863 4.43168L15.6934 3.72457C14.7554 2.78661 13.6253 2.50711 12.4809 2.46134L12.441 3.46054ZM14.9863 4.43168C15.6342 5.07964 15.8739 5.92173 15.9144 6.97625L16.9137 6.93781C16.8683 5.75795 16.5923 4.62349 15.6934 3.72457L14.9863 4.43168ZM15.9155 6.99538C15.9995 8.08704 15.9995 11.4559 15.9155 12.5476L16.9126 12.6243C17.0005 11.4816 17.0005 8.0614 16.9126 6.91868L15.9155 6.99538Z" fill="black"/>
</svg>
